<?xml version="1.0" encoding="UTF-8" standalone="no"?>
<svg
   version="1.1"
   width="708.6568"
   height="160.67062"
   id="svg134"
   sodipodi:docname="TuskQlogo.svg"
   inkscape:export-filename="TuskQlogo0.svg"
   inkscape:export-xdpi="96"
   inkscape:export-ydpi="96"
   xmlns:inkscape="http://www.inkscape.org/namespaces/inkscape"
   xmlns:sodipodi="http://sodipodi.sourceforge.net/DTD/sodipodi-0.dtd"
   xmlns="http://www.w3.org/2000/svg"
   xmlns:svg="http://www.w3.org/2000/svg">
  <defs
     id="defs138" />
  <sodipodi:namedview
     id="namedview136"
     pagecolor="#505050"
     bordercolor="#eeeeee"
     borderopacity="1"
     inkscape:showpageshadow="0"
     inkscape:pageopacity="0"
     inkscape:pagecheckerboard="0"
     inkscape:deskcolor="#d1d1d1"
     showgrid="false" />
  <path
     d="m 407.37305,1.393153 c 0.90299,-0.003 1.80598,-0.005 2.73633,-0.008 1.40475,0.0116 1.40475,0.0116 2.83789,0.0234 0.9249,-0.008 1.8498,-0.0155 2.80273,-0.0234 5.32296,0.0151 9.91048,0.30212 14.88477,2.27344 2.34909,3.52363 2.26962,5.03919 2.31885,9.21557 0.0199,1.2811 0.0397,2.5622 0.0602,3.88213 0.0119,1.39842 0.0235,2.79684 0.035,4.19526 0.0187,1.43062 0.0383,2.86123 0.0587,4.29183 0.0513,3.76299 0.091,7.52601 0.12814,11.28917 0.04,3.84093 0.0911,7.68171 0.1413,11.52252 0.0968,7.5344 0.18118,15.06888 0.25781,22.60352 1.44528,-1.76312 2.8901,-3.52662 4.33472,-5.29029 0.80463,-0.98201 1.60926,-1.96402 2.43827,-2.97578 2.39546,-2.94073 4.73407,-5.90982 7.03951,-8.92143 0.40686,-0.53134 0.81372,-1.06268 1.23291,-1.61011 6.42483,-8.41094 12.75433,-16.89525 19.06787,-25.38989 2.48656,-3.3436 4.99549,-6.66945 7.51562,-9.9878 1.29197,-1.71939 2.55207,-3.45826 3.8086,-5.20361 0.7425,-0.98871 1.485,-1.97742 2.25,-2.99609 0.62261,-0.85336 1.24523,-1.70672 1.88672,-2.58594 6.68762,-5.62148004 16.88419,-4.34276 25.11328,-4.28906 1.19689,-0.008 2.39379,-0.0155 3.62695,-0.0234 1.15822,0.003 2.31645,0.005 3.50977,0.008 1.56367,0.003 1.56367,0.003 3.15893,0.007 3.26347,0.27994 5.96014,1.10884 9.01685,2.25879 0.46063,3.48029 0.11066,4.83119 -1.84375,7.8125 -0.87432,1.07165 -1.76076,2.13348 -2.65625,3.1875 -1.01369,1.24058 -2.02528,2.48288 -3.03516,3.72656 -0.55446,0.67837 -1.10891,1.35674 -1.68017,2.05566 -3.32532,4.13231 -6.51657,8.36738 -9.72217,12.59278 -0.68546,0.90129 -1.37092,1.80259 -2.07715,2.7312 -5.53381,7.28198 -11.03032,14.59138 -16.50586,21.91723 -1.60208,2.14034 -3.20835,4.27748 -4.81543,6.41407 -0.55011,0.73178 -1.10021,1.46356 -1.66699,2.21752 -1.05478,1.40293 -2.11009,2.80546 -3.16602,4.20752 -0.47276,0.62931 -0.94552,1.25861 -1.43261,1.90699 -0.41589,0.55276 -0.83177,1.10553 -1.26026,1.67504 -2.55542,3.32009 -2.55542,3.32009 -3.06787,7.36793 1.13298,3.88448 3.12745,6.27303 5.80469,9.1875 1.01001,1.14519 2.01775,2.2924 3.02344,3.4414 0.51659,0.58669 1.03318,1.17337 1.56543,1.77783 2.44205,2.83095 4.74174,5.767267 7.03613,8.718267 0.67941,0.87108 0.67941,0.87108 1.37256,1.75976 0.91822,1.1783 1.8357,2.35717 2.75244,3.53662 2.28129,2.93019 4.57883,5.84758 6.875,8.76612 2.77726,3.53217 5.55252,7.06586 8.32031,10.60546 0.69742,0.89054 0.69742,0.89054 1.40894,1.79908 0.92205,1.17784 1.84281,2.3567 2.7622,3.53662 2.18,2.78548 4.38915,5.52893 6.69996,8.20727 1.23556,1.44246 1.23556,1.44246 2.49609,2.91406 0.73605,0.83661 1.47211,1.67321 2.23047,2.53516 1.80417,2.73967 1.93155,4.18787 1.58203,7.40234 -3.7136,2.39451 -7.37926,2.30629 -11.65234,2.30079 -1.10573,0.006 -1.10573,0.006 -2.23378,0.013 -1.55578,0.006 -3.11157,0.006 -4.66735,0.002 -2.37262,-0.003 -4.74399,0.0203 -7.11645,0.0456 -1.51498,0.002 -3.02995,0.003 -4.54493,0.002 -0.70535,0.009 -1.4107,0.0184 -2.13743,0.0279 -6.22808,-0.0581 -9.81191,-2.26438 -14.08522,-6.57869 -9.5625,-9.85628 -9.5625,-9.85628 -9.5625,-13.8127 -0.66,0 -1.32,0 -2,0 -1.76658,-2.06855 -3.42316,-4.14633 -5.0625,-6.3125 -1.00435,-1.30275 -2.00956,-2.60482 -3.01563,-3.90624 -0.49822,-0.64711 -0.99644,-1.29422 -1.50976,-1.96094 -3.37492,-4.35051 -6.90995,-8.57232 -10.41211,-12.82031 -1.17746,-1.4398 -2.35451,-2.87993 -3.53125,-4.32032 -1.26033,-1.53913 -2.52075,-3.07819 -3.78125,-4.61718 -0.89876,-1.10179 -0.89876,-1.10179 -1.81568,-2.22584 -0.57258,-0.69762 -1.14517,-1.39524 -1.7351,-2.114007 -0.5083,-0.62125 -1.01659,-1.24249 -1.54029,-1.88257 -1.7753,-2.04625 -3.6737,-3.93276 -5.59643,-5.84008 0.0167,1.15178 0.0167,1.15178 0.0336,2.32684 0.10022,7.239037 0.17632,14.477737 0.22541,21.717287 0.0261,3.72192 0.0615,7.44326 0.11814,11.16485 0.0544,3.59213 0.0842,7.18371 0.0972,10.77622 0.009,1.37 0.0273,2.73997 0.0543,4.10973 0.0363,1.91955 0.0384,3.83966 0.039,5.75956 0.0166,1.63881 0.0166,1.63881 0.0336,3.31073 -0.60127,2.83477 -0.60127,2.83477 -2.9628,5.18751 -3.07876,1.92214 -4.8159,2.15011 -8.41972,2.14336 -1.63389,9.7e-4 -1.63389,9.7e-4 -3.30078,0.002 -1.12793,-0.02 -2.25586,-0.04 -3.41797,-0.0605 -1.12793,0.007 -2.25586,0.0142 -3.41797,0.0215 -9.46557,-0.0728 -9.46557,-0.0728 -14.08203,-3.45899 -2.29434,-3.44151 -2.25274,-4.70467 -2.2607,-8.75595 -0.007,-1.20012 -0.0142,-2.40024 -0.0215,-3.63673 0.004,-1.97777 0.004,-1.97777 0.008,-3.9955 -0.004,-1.40118 -0.01,-2.80236 -0.0155,-4.20354 -0.0134,-3.80791 -0.014,-7.61573 -0.0114,-11.42366 0.001,-3.17842 -0.004,-6.35682 -0.009,-9.53524 -0.0111,-7.49909 -0.0115,-14.998127 -0.005,-22.497227 0.006,-7.73613 -0.006,-15.47208 -0.0276,-23.20818 -0.0176,-6.64129 -0.0236,-13.28251 -0.0204,-19.92382 0.002,-3.96677 -8.3e-4,-7.93342 -0.0147,-11.90017 -0.0126,-3.7314 -0.0106,-7.46252 0.002,-11.19391 0.003,-2.02078 -0.008,-4.04157 -0.0196,-6.06232 0.007,-1.20576 0.014,-2.41153 0.0213,-3.65383 -1.7e-4,-1.04602 -3.3e-4,-2.09205 -5.1e-4,-3.16977 0.43391,-3.28867 1.44237,-5.168 3.37473,-7.84014 2.89929,-1.98669 5.26788,-2.25623 8.73833,-2.26584 z"
     fill="#509cd4"
     id="path2" />
  <path
     d="m 153.94727,1.471283 c 0.93779,-0.0122 1.87559,-0.0245 2.8418,-0.0371 9.87764,-0.0209 9.87764,-0.0209 13.8457,2.22461 2.74333,5.15341 3.43305,9.49589 3.38477,15.33105 0.005,0.80266 0.0107,1.60531 0.0163,2.43229 0.01,1.73231 0.0127,3.46467 0.01,5.19701 -0.004,2.75102 0.01,5.5014 0.0284,8.25236 0.0367,5.84575 0.0505,11.69144 0.0609,17.53729 0.0121,6.76536 0.0339,13.53041 0.08,20.29563 0.0135,2.69364 0.009,5.38687 0.005,8.08053 0.0379,11.75076 0.41251,22.547797 8.31384,31.928527 6.81894,6.31195 15.0566,8.33924 24.09375,8.21875 8.9848,-0.8168 15.95415,-4.69792 22.00781,-11.27344 4.71726,-6.28968 5.29581,-13.192787 5.27124,-20.777587 0.008,-1.27455 0.008,-1.27455 0.0158,-2.57484 0.0102,-1.83383 0.016,-3.66768 0.0179,-5.50153 0.004,-2.90497 0.0205,-5.80961 0.0408,-8.71451 0.0553,-8.25519 0.0861,-16.51043 0.11058,-24.76576 0.0159,-5.05914 0.0461,-10.11804 0.0848,-15.17706 0.0116,-1.92366 0.0176,-3.84735 0.0177,-5.77105 1.9e-4,-2.69008 0.0185,-5.37949 0.0406,-8.06947 -0.005,-0.79029 -0.009,-1.58059 -0.0139,-2.39483 0.0628,-4.80221 0.80037,-8.07374 3.41455,-12.25336 4.42556,-3.22371004 10.14065,-2.32878 15.375,-2.3125 1.54301,-0.0242 1.54301,-0.0242 3.11719,-0.0488 5.54131,-0.004 9.7991,0.0867 14.50781,3.36133 2.60054,3.9008 2.29539,7.18937 2.29053,11.71558 0.007,0.89157 0.0134,1.78314 0.0203,2.70173 0.0191,2.95861 0.0229,5.91699 0.0251,8.87566 0.006,2.06489 0.0132,4.12977 0.0202,6.19466 0.012,4.34032 0.0157,8.68057 0.0145,13.02092 -2.1e-4,5.52173 0.0269,11.04294 0.0615,16.56455 0.0224,4.27355 0.0263,8.54697 0.0252,12.82057 0.002,2.03266 0.0111,4.06533 0.0267,6.09793 0.1477,21.255447 -3.20518,38.436347 -17.48405,55.008397 -0.57105,0.67805 -1.14211,1.35609 -1.73047,2.05469 -10.37662,11.37227 -26.31816,18.14047 -41.53636,19.08618 -20.29951,0.80777 -38.36248,-2.33435 -54.35815,-15.89478 -14.56864,-13.77715 -21.24259,-30.51929 -22.37584,-50.246127 -0.12916,-4.63095 -0.14051,-9.25808 -0.13281,-13.89063 -9.6e-4,-1.30225 -0.002,-2.60451 -0.003,-3.94622 -0.001,-2.74646 6.3e-4,-5.49287 0.005,-8.23932 0.005,-2.76109 0.005,-5.52211 0,-8.28321 -0.0153,-9.21431 0.022,-18.42676 0.13037,-27.64062 0.0133,-1.20842 0.0265,-2.41683 0.0402,-3.66186 0.0482,-3.3586 0.12642,-6.71485 0.21765,-10.07252 0.0136,-0.98889 0.0272,-1.97778 0.0412,-2.99664 0.23142,-6.61752 0.23142,-6.61752 2.55985,-9.84808 4.83567,-3.20905004 9.86913,-2.60461 15.45365,-2.6084 z"
     fill="#5298d6"
     id="path4" />
  <path
     d="m 616.63477,2.658783 c 0.79535,0.17145 1.5907,0.34289 2.41016,0.51953 15.41888,3.98986 28.8101,12.93485 39.58984,24.48047 0,0.66 0,1.32 0,2 0.66,0 1.32,0 2,0 14.89158,18.31262 18.88609,40.19155 16.80518,63.14941 -1.12527,9.052767 -4.57573,17.398617 -9.80518,24.850587 -0.99,0.33 -1.98,0.66 -3,1 -5.4625,-6.9133 -10.76111,-13.80302 -15.33984,-21.347657 -1.62279,-2.67705 -1.62279,-2.67705 -3.53907,-5.14843 -4.69655,-6.44184 -6.19766,-12.17104 -7.05957,-19.95923 -1.08121,-9.17511 -5.55357,-17.01327 -12.06152,-23.54468 -9.41883,-7.04709 -21.11412,-11.48828 -33,-10 -11.07243,2.0791 -21.83758,6.99125 -28.66016,16.25391 -7.1896,11.28785 -9.52885,23.75333 -6.64843,36.90234 3.61701,10.775367 10.00368,19.572867 20.05859,25.031247 2.32358,1.13726 4.17424,1.80195 6.74609,2.16016 10.08166,1.50712 14.14894,9.0037 19.90625,16.62695 2.33754,2.96335 4.90555,5.63512 7.59766,8.27539 0.84563,0.83016 1.69125,1.66031 2.5625,2.51562 2.42854,2.29965 2.42854,2.29965 5.25,4.34375 1.08281,0.93586 1.08281,0.93586 2.1875,1.89063 0,0.99 0,1.98 0,3 -18.23409,6.83778 -41.79042,4.17136 -59.20313,-3.63672 -19.50296,-9.50633 -32.96269,-25.24563 -40.79687,-45.36328 -1.23618,-3.96759 -2.22758,-7.918057 -3,-11.999997 -0.27457,-1.43859 -0.27457,-1.43859 -0.55469,-2.90625 -2.89745,-20.12964 2.72898,-42.39233 14.80127,-58.78662 13.95946,-18.05213 31.29542,-28.08431 53.69092,-31.99463004 9.84239,-0.97813 19.41055,-0.41424 29.0625,1.68750004 z"
     fill="#fdfdfd"
     id="path6" />
  <path
     d="m 378.63477,9.658783 c 2.92947,5.85894 0.43965,14.08158 -0.8125,20.1875 -0.16564,0.87592 -0.33129,1.75184 -0.50195,2.6543 -0.92396,4.59887 -1.88568,8.28331 -4.68555,12.1582 -7.48312,-0.35215 -14.40546,-2.03967 -21.58203,-4.0625 -5.23764,-1.43661 -9.90864,-2.11653 -15.35547,-2.1875 -1.18465,-0.0258 -2.3693,-0.0516 -3.58984,-0.0781 -3.80385,0.35942 -6.15801,1.4947 -9.47266,3.32813 -0.66,0 -1.32,0 -2,0 -0.0545,1.41623 -0.093,2.83308 -0.125,4.25 -0.0232,0.78891 -0.0464,1.57781 -0.0703,2.39062 0.21988,2.65616 0.82322,4.08697 2.19531,6.35938 6.69969,4.01981 14.0898,6.13744 21.5,8.5 15.87875,5.06254 31.23482,11.60745 39.85156,26.89844 5.20384,11.268727 5.19516,24.957747 1.7461,36.796867 -4.84457,12.37863 -13.88722,22.05377 -25.91016,27.58985 -5.28473,2.01415 -10.62731,3.2332 -16.1875,4.21484 -0.74121,0.13148 -1.48242,0.26297 -2.24609,0.39844 -19.80536,2.94885 -42.02223,-1.37708 -59.75392,-10.39847 -2,-2 -2,-2 -2.11719,-4.69531 0.48563,-6.87717 1.40296,-13.3671 3.05469,-20.05469 0.16967,-0.6911 0.33935,-1.3822 0.51416,-2.09424 0.79914,-3.04068 1.28782,-4.89524 3.54834,-7.15576 6.1165,0.10731 11.56826,1.67553 17.375,3.4375 13.34128,4.04185 29.42311,8.33965 42.625,1.5625 1.81992,-2.21599 1.81992,-2.21599 2,-5 0.14438,-0.96937 0.28875,-1.93875 0.4375,-2.9375 -0.5787,-4.05092 -2.46227,-6.39702 -5.4375,-9.0625 -2.52525,-1.3824 -5.12724,-2.22511 -7.875,-3.062497 -1.11677,-0.36823 -1.11677,-0.36823 -2.2561,-0.7439 -2.28406,-0.75004 -4.57504,-1.47419 -6.8689,-2.1936 -11.5028,-3.66888 -22.47157,-7.33582 -32,-15 0,-0.66 0,-1.32 0,-2 -0.66,0 -1.32,0 -2,0 0,-0.66 0,-1.32 0,-2 -0.66,0 -1.32,0 -2,0 -8.21604,-9.29586 -10.91619,-20.91722 -10.38281,-33.03125 0.96521,-10.00665 4.28261,-18.05182 10.38281,-25.96875 0.61875,-0.88687 1.2375,-1.77375 1.875,-2.6875 20.35062,-22.14626 61.06492,-18.29504 86.125,-6.3125 z"
     fill="#4f9bd4"
     id="path8" />
  <path
     d="m 47.241216,1.612883 c 9.60963,-0.0924 19.21578,-0.0686 28.82532,0.0231 2.78672,0.0248 5.57345,0.0429 8.36023,0.0609 5.07336,0.0358 10.146,0.0959 15.21893,0.17145 1.981084,0.0268 3.962264,0.0472 5.943484,0.0609 2.76585,0.0212 5.53019,0.0675 8.29559,0.12017 0.82745,0.001 1.6549,0.002 2.50742,0.004 3.46659,0.0892 5.81466,0.32881 8.75626,2.2316 1.96333,3.13591 2.00333,5.27732 2.01757,8.96777 0.008,1.91619 0.008,1.91619 0.0156,3.87109 -0.0126,0.99363 -0.0126,0.99363 -0.0254,2.00733 -0.0214,2.02221 -1.8e-4,4.04088 0.0254,6.06299 -0.005,1.27746 -0.0103,2.55492 -0.0156,3.87109 -0.005,1.16853 -0.009,2.33707 -0.0137,3.54101 -0.65247,3.84838 -1.35997,4.77232 -4.51757,7.05274 -3.05132,0.55265 -6.04854,0.46535 -9.14063,0.39062 -0.88218,-0.006 -1.76436,-0.0113 -2.67328,-0.0172 -2.81259,-0.0224 -5.62389,-0.0725 -8.43609,-0.12347 -1.90884,-0.0201 -3.817704,-0.0383 -5.726574,-0.0547 -4.67497,-0.0441 -9.34898,-0.11308 -14.02343,-0.19531 0.004,0.57868 0.007,1.15737 0.0112,1.75359 0.0883,14.07969 0.15452,28.15935 0.19607,42.23927 0.0206,6.80896 0.0488,13.61773 0.0945,20.426567 0.0441,6.56816 0.0674,13.13618 0.0778,19.70449 0.007,2.50871 0.0219,5.0174 0.0434,7.52602 0.0289,3.50787 0.033,7.01494 0.0312,10.52291 0.0144,1.04225 0.0288,2.0845 0.0436,3.15834 -0.0405,7.04087 -0.0405,7.04087 -2.40106,10.28301 -5.24142,3.46442 -10.77694,2.64892 -16.90912,2.6983 -1.18916,0.029 -2.37832,0.058 -3.60351,0.0879 -1.14791,0.008 -2.29582,0.0168 -3.47852,0.0254 -1.05034,0.0146 -2.10069,0.0292 -3.18286,0.0442 -3.69134,-0.59359 -5.32261,-1.81933 -7.92261,-4.46997 -0.99059,-2.91115 -1.12375,-5.59753 -1.12025,-8.65705 -0.001,-0.93105 -0.003,-1.86211 -0.004,-2.82138 0.004,-1.0142 0.007,-2.0284 0.0109,-3.07333 -1.4e-4,-1.07348 -2.9e-4,-2.14695 -4.4e-4,-3.25296 7e-4,-3.54949 0.008,-7.09893 0.0163,-10.64841 0.002,-2.46051 0.003,-4.92102 0.004,-7.38153 0.004,-6.47728 0.0136,-12.95454 0.0247,-19.431817 0.0102,-6.60909 0.0148,-13.21818 0.0198,-19.82727 0.0107,-12.96876 0.0276,-25.93751 0.0488,-38.90625 -1.15524,0.021 -2.31048,0.0419 -3.50073,0.0635 -4.29561,0.0725 -8.59117,0.11836 -12.88721,0.15625 -1.85751,0.0201 -3.71497,0.0474 -5.57227,0.082 -2.67358,0.0487 -5.34632,0.0712 -8.02026,0.0889 -0.82727,0.0206 -1.65454,0.0413 -2.50688,0.0626 -4.0027704,0.002 -6.0364004,-0.16444 -9.5369304,-2.28681 -2.69715997,-2.95744 -2.60708997,-4.79647 -2.60462997,-8.76013 -0.002,-1.27746 -0.004,-2.55492 -0.006000005,-3.87109 0.012500005,-0.66242 0.025000005,-1.32484 0.037800005,-2.00733 0.0343,-2.02241 0.0206,-4.04045 0.001,-6.06299 0.0732,-9.67507 0.0732,-9.67507 2.16625997,-12.83886 3.24679,-2.17301 6.08374,-2.22862 9.8669504,-2.23536 0.73908,-0.0166 1.47817,-0.0333 2.23965,-0.0504 2.44104,-0.0495 4.88139,-0.0704 7.32285,-0.0902 1.72316,-0.0272 3.44631,-0.0557 5.16943,-0.0854 4.42974,-0.0701 8.85926,-0.11342 13.28943,-0.14563 2.38265,-0.0178 4.76513,-0.0405 7.14765,-0.0649 z"
     fill="#549cd8"
     id="path10" />
  <path
     d="m 625.14649,80.647063 c 7.38472,4.45089 10.7032,11.17026 14.23828,18.76172 8.55928,17.472247 22.38362,31.124147 40.80469,37.488277 0.80695,0.25137 1.6139,0.50273 2.44531,0.76172 0.60328,0.19207 1.20656,0.38414 1.82813,0.58203 3.98785,0.76745 8.09813,0.74235 12.15234,0.84766 4.69663,0.21227 7.97152,1.19733 12.01953,3.57031 0.0625,3.1875 0.0625,3.1875 -1,7 -2.70339,2.30823 -5.74551,3.61756 -9,5 -0.85336,0.37125 -1.70672,0.7425 -2.58594,1.125 -17.7351,7.07324 -36.37933,6.10901 -54.05859,-0.58203 -5.37889,-2.47341 -9.82407,-5.7668 -14.35547,-9.54297 -1.32644,-1.10022 -1.32644,-1.10022 -2.67969,-2.22266 -4.49744,-3.85995 -4.49744,-3.85995 -6.32031,-5.77734 0,-0.66 0,-1.32 0,-2 -0.66,0 -1.32,0 -2,0 -1.84462,-2.23344 -3.56021,-4.46559 -5.25,-6.8125 -0.49363,-0.68055 -0.98726,-1.36109 -1.49585,-2.06226 -7.22337,-10.11224 -13.82548,-20.25623 -12.25415,-33.125237 1.63036,-5.61352 4.48217,-8.91368 9.31641,-12.08984 5.49731,-2.97187 12.41874,-3.19477 18.19531,-0.92188 z"
     fill="#fefdfd"
     id="path12" />
  <path
     d="m 407.37305,1.393153 c 0.90299,-0.003 1.80598,-0.005 2.73633,-0.008 1.40475,0.0116 1.40475,0.0116 2.83789,0.0234 0.9249,-0.008 1.8498,-0.0155 2.80273,-0.0234 5.32296,0.0151 9.91048,0.30212 14.88477,2.27344 2.34909,3.52363 2.26962,5.03919 2.31885,9.21557 0.0199,1.2811 0.0397,2.5622 0.0602,3.88213 0.0119,1.39842 0.0235,2.79684 0.035,4.19526 0.0187,1.43062 0.0383,2.86123 0.0587,4.29183 0.0513,3.76299 0.091,7.52601 0.12814,11.28917 0.04,3.84093 0.0911,7.68171 0.1413,11.52252 0.0968,7.5344 0.18118,15.06888 0.25781,22.60352 1.44528,-1.76312 2.8901,-3.52662 4.33472,-5.29029 0.80463,-0.98201 1.60926,-1.96402 2.43827,-2.97578 2.39546,-2.94073 4.73407,-5.90982 7.03951,-8.92143 0.40686,-0.53134 0.81372,-1.06268 1.23291,-1.61011 6.42483,-8.41094 12.75433,-16.89525 19.06787,-25.38989 2.48656,-3.3436 4.99549,-6.66945 7.51562,-9.9878 1.29197,-1.71939 2.55207,-3.45826 3.8086,-5.20361 0.7425,-0.98871 1.485,-1.97742 2.25,-2.99609 0.62261,-0.85336 1.24523,-1.70672 1.88672,-2.58594 6.68762,-5.62148004 16.88419,-4.34276 25.11328,-4.28906 1.19689,-0.008 2.39379,-0.0155 3.62695,-0.0234 1.15822,0.003 2.31645,0.005 3.50977,0.008 1.56367,0.003 1.56367,0.003 3.15893,0.007 3.26347,0.27994 5.96014,1.10884 9.01685,2.25879 0.46063,3.48029 0.11066,4.83119 -1.84375,7.8125 -0.87432,1.07165 -1.76076,2.13348 -2.65625,3.1875 -1.01369,1.24058 -2.02528,2.48288 -3.03516,3.72656 -0.55446,0.67837 -1.10891,1.35674 -1.68017,2.05566 -3.32532,4.13231 -6.51657,8.36738 -9.72217,12.59278 -0.68546,0.90129 -1.37092,1.80259 -2.07715,2.7312 -5.53381,7.28198 -11.03032,14.59138 -16.50586,21.91723 -1.60208,2.14034 -3.20835,4.27748 -4.81543,6.41407 -0.55011,0.73178 -1.10021,1.46356 -1.66699,2.21752 -1.05478,1.40293 -2.11009,2.80546 -3.16602,4.20752 -0.47276,0.62931 -0.94552,1.25861 -1.43261,1.90699 -0.41589,0.55276 -0.83177,1.10553 -1.26026,1.67504 -2.55542,3.32009 -2.55542,3.32009 -3.06787,7.36793 1.13298,3.88448 3.12745,6.27303 5.80469,9.1875 1.01001,1.14519 2.01775,2.2924 3.02344,3.4414 0.51659,0.58669 1.03318,1.17337 1.56543,1.77783 2.44205,2.83095 4.74174,5.767267 7.03613,8.718267 0.67941,0.87108 0.67941,0.87108 1.37256,1.75976 0.91822,1.1783 1.8357,2.35717 2.75244,3.53662 2.28129,2.93019 4.57883,5.84758 6.875,8.76612 2.77726,3.53217 5.55252,7.06586 8.32031,10.60546 0.69742,0.89054 0.69742,0.89054 1.40894,1.79908 0.92205,1.17784 1.84281,2.3567 2.7622,3.53662 2.18,2.78548 4.38915,5.52893 6.69996,8.20727 1.23556,1.44246 1.23556,1.44246 2.49609,2.91406 0.73605,0.83661 1.47211,1.67321 2.23047,2.53516 1.80417,2.73967 1.93155,4.18787 1.58203,7.40234 -2.97,0.99 -2.97,0.99 -6,2 -0.33,-0.66 -0.66,-1.32 -1,-2 1.65,-0.33 3.3,-0.66 5,-1 -2.61186,-4.84713 -5.46965,-8.99532 -9.125,-13.125 -4.16484,-4.8112 -8.1166,-9.71327 -11.96118,-14.7854 -3.39777,-4.4631 -6.92142,-8.81349 -10.47632,-13.15209 -4.58646,-5.60228 -9.0082,-11.27675 -13.28906,-17.117187 -3.00721,-3.94764 -6.28307,-7.6524 -9.59375,-11.34766 -1.55469,-2.47285 -1.55469,-2.47285 -1.34595,-4.85152 0.8805,-2.91699 2.01802,-4.64556 3.89673,-7.0354 0.64662,-0.83362 1.29325,-1.66724 1.95947,-2.52612 0.70044,-0.88599 1.40089,-1.77198 2.12256,-2.68481 1.47143,-1.89347 2.94145,-3.78802 4.41015,-5.6836 0.74138,-0.95374 1.48275,-1.90749 2.24659,-2.89014 3.16429,-4.11179 6.22483,-8.29617 9.28076,-12.48876 5.74013,-7.84583 11.66939,-15.52913 17.65625,-23.1875 2.86769,-3.66956 5.71784,-7.35116 8.53125,-11.0625 0.69738,-0.91653 1.39476,-1.83305 2.11328,-2.77735 1.72696,-2.28043 1.72696,-2.28043 2.57422,-5.28515 -5.17858,0.0194 -10.35547,0.0712 -15.53345,0.15258 -1.76032,0.0232 -3.52078,0.0376 -5.28125,0.043 -2.5353,0.009 -5.06843,0.0503 -7.60327,0.0974 -0.78352,-0.004 -1.56705,-0.008 -2.37431,-0.0119 -4.1149,0.10917 -5.73783,0.33863 -9.04195,3.01289 -0.71471,0.893 -1.42941,1.786 -2.16577,2.70606 -0.84643,1.00462 -0.84643,1.00462 -1.70996,2.02954 -0.50306,0.65154 -1.00612,1.30308 -1.52442,1.97436 -0.8538,1.1013 -0.8538,1.1013 -1.72485,2.22486 -0.59096,0.77013 -1.18191,1.54026 -1.79077,2.33374 -0.93187,1.20644 -0.93187,1.20644 -1.88257,2.43725 -4.05849,5.26491 -8.06843,10.56351 -12.03931,15.89478 -2.8533,3.806 -5.74605,7.58082 -8.64062,11.35547 -6.28955,8.20505 -12.50061,16.46736 -18.6875,24.75 -1.65,-0.33 -3.3,-0.66 -5,-1 -0.008,-0.80989 -0.0162,-1.61977 -0.0245,-2.4542 -0.0779,-7.62248 -0.16512,-15.24477 -0.26302,-22.86702 -0.05,-3.91894 -0.0963,-7.83784 -0.13435,-11.75691 -0.0368,-3.78024 -0.0832,-7.56025 -0.13619,-11.34029 -0.0186,-1.44409 -0.0337,-2.88823 -0.0453,-4.33239 -0.0168,-2.01855 -0.047,-4.03697 -0.0778,-6.05535 -0.0133,-1.15027 -0.0267,-2.30055 -0.0404,-3.48568 -0.006,-2.85625 -0.006,-2.85625 -2.27847,-4.70816 -4.48258,-0.46046 -8.99652,-0.32401 -13.5,-0.3125 -1.26199,-0.0161 -2.52399,-0.0322 -3.82422,-0.0488 -1.2027,-6.5e-4 -2.40539,-0.001 -3.64453,-0.002 -1.10795,-0.003 -2.2159,-0.006 -3.35742,-0.009 -0.88237,0.12286 -1.76473,0.24573 -2.67383,0.37232 -2.31377,3.47065 -2.24758,4.77314 -2.24051,8.86552 -0.003,1.22418 -0.005,2.44835 -0.008,3.70963 0.007,1.35865 0.0143,2.71731 0.0218,4.07597 5.6e-4,1.42899 2.5e-4,2.85799 -8.9e-4,4.28698 -5.7e-4,3.88199 0.0112,7.76384 0.0251,11.64579 0.0125,4.05592 0.0137,8.11184 0.0161,12.16777 0.006,7.68165 0.0226,15.36324 0.0427,23.04487 0.0223,8.74476 0.0334,17.48951 0.0434,26.23429 0.0209,17.989757 0.0561,35.979457 0.10065,53.969167 1.98,0.66 3.96,1.32 6,2 0,0.66 0,1.32 0,2 -5.46984,-1.45862 -5.46984,-1.45862 -7.67541,-3.71086 -1.67941,-2.90233 -1.70192,-4.8191 -1.70554,-8.16534 -0.009,-1.2015 -0.0169,-2.40299 -0.0256,-3.6409 0.006,-1.31492 0.0121,-2.62984 0.0184,-3.9846 -0.004,-1.40133 -0.009,-2.80266 -0.0159,-4.20398 -0.0137,-3.80378 -0.008,-7.60731 10e-4,-11.41109 0.008,-3.98152 5.5e-4,-7.96301 -0.004,-11.94452 -0.005,-6.68737 0.002,-13.374637 0.016,-20.061997 0.0163,-7.72878 0.011,-15.45732 -0.005,-23.18609 -0.0136,-6.63707 -0.0155,-13.27407 -0.008,-19.91114 0.005,-3.9634 0.005,-7.92668 -0.005,-11.89007 -0.009,-3.72732 -0.003,-7.45434 0.0147,-11.18163 0.006,-2.01838 -0.003,-4.03678 -0.0124,-6.05514 0.009,-1.20432 0.0169,-2.40864 0.0256,-3.64945 10e-4,-1.04472 0.002,-2.08945 0.003,-3.16584 0.43713,-3.28535 1.44734,-5.16701 3.37752,-7.83734 2.89938,-1.98648 5.26797,-2.25602 8.73842,-2.26563 z"
     fill="#56ace7"
     id="path14" />
  <path
     d="m 47.241216,1.612883 c 9.60963,-0.0924 19.21578,-0.0686 28.82532,0.0231 2.78672,0.0248 5.57345,0.0429 8.36023,0.0609 5.07336,0.0358 10.146,0.0959 15.21893,0.17145 1.981084,0.0268 3.962264,0.0472 5.943484,0.0609 2.76585,0.0212 5.53019,0.0675 8.29559,0.12017 0.82745,0.001 1.6549,0.002 2.50742,0.004 3.46659,0.0892 5.81466,0.32881 8.75626,2.2316 1.96333,3.13591 2.00333,5.27732 2.01757,8.96777 0.008,1.91619 0.008,1.91619 0.0156,3.87109 -0.0126,0.99363 -0.0126,0.99363 -0.0254,2.00733 -0.0214,2.02221 -1.8e-4,4.04088 0.0254,6.06299 -0.005,1.27746 -0.0103,2.55492 -0.0156,3.87109 -0.005,1.16853 -0.009,2.33707 -0.0137,3.54101 -0.51757,3.05274 -0.51757,3.05274 -1.97949,5.44043 -3.81788,2.42529 -7.2465,2.1105 -11.67871,2.00293 -0.7823,-0.004 -1.5646,-0.008 -2.3706,-0.0122 -2.91317,-0.0209 -5.82599,-0.0767 -8.73877,-0.12841 -6.517504,-0.0825 -13.035004,-0.165 -19.750004,-0.25 -0.33,21.45 -0.66,42.9 -1,64.999997 -0.33,0 -0.66,0 -1,0 -0.17685,-8.440207 -0.34281,-16.880527 -0.49478,-25.321217 -0.0709,-3.9191 -0.14559,-7.83805 -0.22886,-11.75691 -0.0802,-3.77997 -0.1505,-7.56 -0.21394,-11.34029 -0.026,-1.4442 -0.0555,-2.88834 -0.0887,-4.33239 -0.0457,-2.01826 -0.0777,-4.03681 -0.10899,-6.05535 -0.0333,-1.72541 -0.0333,-1.72541 -0.0673,-3.48568 0.2026,-2.70841 0.2026,-2.70841 2.2026,-4.70841 1.83499,-0.27848 1.83499,-0.27848 4.08252,-0.31885 0.84072,-0.0199 1.68144,-0.0397 2.54764,-0.0602 0.90837,-0.0115 1.81675,-0.0231 2.75265,-0.035 0.9294,-0.0194 1.85881,-0.0387 2.81638,-0.0587 2.97517,-0.0599 5.95039,-0.10622 8.925814,-0.15225 2.01434,-0.0382 4.02866,-0.0772 6.04297,-0.11719 4.94387,-0.0962 9.88783,-0.18016 14.83203,-0.25781 0.0247,-4.09342 0.0429,-8.18681 0.0549,-12.28028 0.005,-1.39291 0.0119,-2.78581 0.0205,-4.17871 0.0121,-2.00063 0.0173,-4.00129 0.0222,-6.00195 0.008,-1.8067 0.008,-1.8067 0.0159,-3.6499 0.0874,-2.83053 0.0874,-2.83053 -1.11353,-4.88916 -15.36802,-0.0233 -30.736034,-0.041 -46.104064,-0.0518 -7.13516,-0.005 -14.27031,-0.0122 -21.40547,-0.0236 -6.87937,-0.011 -13.75874,-0.0168 -20.63812,-0.0194 -2.63117,-0.002 -5.26234,-0.005 -7.89351,-0.0109 -3.67111,-0.007 -7.34217,-0.008 -11.01329,-0.008 -1.09979,-0.004 -2.19958,-0.007 -3.3327,-0.0109 -1.49137,0.002 -1.49137,0.002 -3.0128604,0.004 -0.86926,-9.2e-4 -1.73851,-0.002 -2.6341,-0.003 -1.969,-0.0944 -1.969,-0.0944 -2.9659,1.12305 -0.25415,4.64015 -0.18522,9.29121 -0.1875,13.9375 -0.0122,1.3142 -0.0245,2.6284 -0.0371,3.98242 -0.002,1.25233 -0.004,2.50465 -0.006,3.79492 -0.004,1.15621 -0.008,2.31242 -0.0125,3.50367 -0.0451,2.92206 -0.0451,2.92206 2.24292,4.78149 2.98597,0.22169 5.8863504,0.32538 8.8750004,0.34375 0.88027,0.0146 1.76054,0.0292 2.66748,0.0443 2.81913,0.0466 5.63819,0.0808 8.45752,0.11194 3.7086,0.041 7.4167,0.0947 11.125,0.15625 1.28754,0.008 1.28754,0.008 2.60108,0.016 6.04832,0.10215 6.04832,0.10215 8.27392,2.32776 0.24775,1.99968 0.24775,1.99968 0.24483,4.50351 0.004,0.94776 0.008,1.89553 0.0119,2.87202 -0.006,1.04316 -0.0114,2.08632 -0.0172,3.16109 0.002,1.09602 0.004,2.19204 0.006,3.32127 0.004,2.38615 0.003,4.7723 -0.002,7.15845 -0.006,3.77352 0.004,7.54673 0.0172,11.32024 0.0372,10.73092 0.0559,21.46173 0.0444,32.192717 -0.007,6.55764 0.0124,13.11492 0.0459,19.6725 0.008,2.50308 0.007,5.0062 -0.004,7.50927 -0.0143,3.49832 0.002,6.99527 0.025,10.49352 -0.0118,1.03911 -0.0235,2.07822 -0.0357,3.14882 -0.0342,5.75608 -0.0342,5.75608 3.20257,10.3213 1.21809,0.65602 1.21809,0.65602 2.46077,1.32529 -0.99,0.33 -1.98,0.66 -3,1 -4.65064,-2.9897 -4.65064,-2.9897 -5.64092,-5.85347 -0.38627,-2.30908 -0.482,-4.46209 -0.47933,-6.80358 -10e-4,-0.93105 -0.003,-1.86211 -0.004,-2.82138 0.004,-1.0142 0.007,-2.0284 0.0109,-3.07333 -1.4e-4,-1.07348 -2.9e-4,-2.14695 -4.4e-4,-3.25296 7e-4,-3.54949 0.008,-7.09893 0.0163,-10.64841 0.002,-2.46051 0.003,-4.92102 0.004,-7.38153 0.004,-6.47728 0.0137,-12.95454 0.0247,-19.431817 0.0102,-6.60909 0.0148,-13.21818 0.0198,-19.82727 0.0107,-12.96876 0.0276,-25.93751 0.0488,-38.90625 -1.15524,0.021 -2.31048,0.0419 -3.50073,0.0635 -4.29561,0.0725 -8.59116,0.11837 -12.88721,0.15625 -1.85751,0.0201 -3.71496,0.0474 -5.57226,0.082 -2.67358,0.0487 -5.34632,0.0712 -8.02027,0.0889 -0.82727,0.0206 -1.65454,0.0413 -2.50688,0.0626 -4.0027704,0.002 -6.0364004,-0.16444 -9.5369204,-2.28681 -2.69716998,-2.95744 -2.60708998,-4.79647 -2.60462998,-8.76013 -0.002,-1.27746 -0.004,-2.55492 -0.005999995,-3.87109 0.012499995,-0.66242 0.024999995,-1.32484 0.037799995,-2.00733 0.0343,-2.02241 0.0207,-4.04045 0.001,-6.06299 0.0732,-9.67507 0.0732,-9.67507 2.16624998,-12.83886 3.24679,-2.17301 6.08374,-2.22862 9.8669504,-2.23535 0.73908,-0.0166 1.47817,-0.0333 2.23965,-0.0504 2.44105,-0.0496 4.8814,-0.0704 7.32285,-0.0902 1.72316,-0.0272 3.44631,-0.0557 5.16943,-0.0854 4.42974,-0.0701 8.85927,-0.11341 13.28943,-0.14563 2.38269,-0.0177 4.76517,-0.0404 7.14769,-0.0648 z"
     fill="#5dbdfa"
     id="path16" />
  <path
     d="m 153.94727,1.471283 c 0.93779,-0.0122 1.87559,-0.0245 2.8418,-0.0371 9.87764,-0.0209 9.87764,-0.0209 13.8457,2.22461 2.74333,5.15341 3.43305,9.49589 3.38477,15.33105 0.005,0.80266 0.0107,1.60531 0.0163,2.43229 0.01,1.73231 0.0127,3.46467 0.01,5.19701 -0.004,2.75102 0.01,5.5014 0.0284,8.25236 0.0367,5.84575 0.0505,11.69144 0.0609,17.53729 0.0121,6.76536 0.0339,13.53041 0.08,20.29563 0.0135,2.69364 0.009,5.38687 0.005,8.08053 0.0379,11.75076 0.41251,22.547797 8.31384,31.928527 6.8248,6.31738 15.04369,8.31516 24.08203,8.23047 7.42576,-0.70127 13.37163,-3.51974 19.01953,-8.28516 1.485,0.495 1.485,0.495 3,1 -5.19445,6.06019 -13.4485,9.53622 -21.29687,10.33594 -10.70235,0.12106 -18.94384,-1.65509 -26.88282,-9.16016 -9.92812,-11.86687 -10.11262,-25.902257 -10.15583,-40.543207 -0.008,-2.74029 -0.0289,-5.48026 -0.0525,-8.22046 -0.0561,-6.79394 -0.0917,-13.58795 -0.12762,-20.38202 -0.0312,-5.7663 -0.0703,-11.53244 -0.12025,-17.29861 -0.0201,-2.70227 -0.0284,-5.4044 -0.0363,-8.10672 -0.013,-1.64576 -0.0265,-3.29151 -0.0406,-4.93726 0.001,-1.12982 0.001,-1.12982 0.003,-2.28246 0.0828,-4.15808 0.0828,-4.15808 -2.29009,-7.40504 -9.24,0 -18.48,0 -28,0 0,33.99 0,67.98 0,102.999997 -0.66,0 -1.32,0 -2,0 -2.61329,-14.723287 -2.26924,-29.542847 -2.19562,-44.440547 0.0107,-2.72282 0.0104,-5.44558 0.01,-8.16841 1.2e-4,-8.46455 0.069,-16.92729 0.18558,-25.39104 0.0143,-1.20415 0.0286,-2.40829 0.0434,-3.64893 0.0493,-3.35763 0.12785,-6.71307 0.21832,-10.06982 0.0134,-0.98988 0.0267,-1.97976 0.0405,-2.99963 0.22925,-6.6312 0.22925,-6.6312 2.55644,-9.8617 4.83676,-3.20721004 9.86916,-2.60363 15.45388,-2.60742 z"
     fill="#58aaf2"
     id="path18" />
  <path
     d="m 378.63477,9.658783 c 2.92947,5.85894 0.43965,14.08158 -0.8125,20.1875 -0.16564,0.87592 -0.33129,1.75184 -0.50195,2.6543 -0.92396,4.59887 -1.88568,8.28331 -4.68555,12.1582 -7.48312,-0.35215 -14.40546,-2.03967 -21.58203,-4.0625 -5.23764,-1.43661 -9.90864,-2.11653 -15.35547,-2.1875 -1.18465,-0.0258 -2.3693,-0.0516 -3.58984,-0.0781 -3.80385,0.35942 -6.15801,1.4947 -9.47266,3.32813 -0.66,0 -1.32,0 -2,0 -0.0545,1.41623 -0.093,2.83308 -0.125,4.25 -0.0232,0.78891 -0.0464,1.57781 -0.0703,2.39062 0.21988,2.65616 0.82322,4.08697 2.19531,6.35938 6.69969,4.01981 14.0898,6.13744 21.5,8.5 15.92113,5.07605 31.12986,11.6129 39.85156,26.86328 1.93554,4.14262 3.17859,8.05571 3.64844,12.636717 -0.99,0 -1.98,0 -3,0 -0.21914,-0.77344 -0.43828,-1.54688 -0.66406,-2.34375 -3.4869,-11.452897 -9.34392,-19.997607 -19.84766,-26.120357 -8.6728,-4.42939 -17.60556,-7.37357 -26.87744,-10.21582 -13.96353,-4.30945 -13.96353,-4.30945 -18.61085,-9.3201 -1.85962,-3.71924 -1.57399,-7.9502 -1,-12 2.54147,-3.38862 5.07164,-5.48859 9,-7 13.45915,-1.43564 25.10888,1.093 37.80615,5.44922 2.46574,0.61904 4.66145,0.64418 7.19385,0.55078 1.95914,-6.22159 3.04799,-12.51135 4.125,-18.9375 0.18176,-1.06541 0.36352,-2.13082 0.55078,-3.22852 0.44488,-2.61075 0.88619,-5.22206 1.32422,-7.83398 -2.68438,-0.73261 -5.36892,-1.46454 -8.0542,-2.19385 -1.70967,-0.46787 -3.4179,-0.9412 -5.12207,-1.42871 -9.72919,-2.76175 -19.08157,-3.76655 -29.19873,-3.81494 -1.06871,-0.01 -2.13743,-0.0198 -3.23852,-0.03 -9.61865,0.1033 -19.02058,1.58592 -27.44898,6.46753 -0.87785,0.495 -1.7557,0.99 -2.66016,1.5 -2.28812,1.39679 -2.28812,1.39679 -3.96093,3.1875 -1.31641,1.31247 -1.31641,1.31247 -3.31641,1.31247 -0.22688,0.51562 -0.45375,1.03125 -0.6875,1.5625 -1.81006,3.36153 -4.05246,6.36661 -6.3125,9.4375 -0.66,-0.66 -1.32,-1.32 -2,-2 8.72298,-13.14389 17.87038,-20.44359 33.55859,-23.75 19.65204,-3.09955 41.34018,-0.90514 59.44141,7.75 z"
     fill="#55baf2"
     id="path20" />
  <path
     d="m 253.00977,1.346283 c 1.54301,-0.0242 1.54301,-0.0242 3.11719,-0.0488 5.54131,-0.004 9.7991,0.0867 14.50781,3.36133 2.64303,3.96454 2.26514,7.37027 2.22705,11.96948 2.9e-4,0.91728 5.9e-4,1.83455 8.9e-4,2.77962 -10e-4,3.03555 -0.017,6.07086 -0.0326,9.10637 -0.004,2.10321 -0.007,4.20643 -0.009,6.30965 -0.008,5.53861 -0.0273,11.07713 -0.0494,16.6157 -0.0205,5.65052 -0.0296,11.30106 -0.0397,16.9516 -0.0215,11.08924 -0.0556,22.1784 -0.0977,33.267577 -2.60678,-2.606777 -2.25164,-4.439187 -2.29009,-7.990487 0.002,-1.25852 0.002,-1.25852 0.003,-2.54247 -0.007,-0.88305 -0.0137,-1.76609 -0.0207,-2.6759 -0.0136,-1.92122 -0.0226,-3.84247 -0.0277,-5.76373 -0.008,-3.03816 -0.0288,-6.07602 -0.0525,-9.1141 -0.0483,-6.45022 -0.0812,-12.90048 -0.11193,-19.35081 -0.0356,-7.46916 -0.0775,-14.93817 -0.13594,-22.40718 -0.0201,-2.99747 -0.0284,-5.99482 -0.0363,-8.99234 -0.013,-1.83355 -0.0265,-3.66709 -0.0407,-5.50063 0.002,-1.25548 0.002,-1.25548 0.003,-2.53633 -0.042,-3.8891 -0.0834,-5.81589 -2.29011,-9.12602 -2.91064,-0.41789 -2.91064,-0.41789 -6.32031,-0.29297 -1.25684,0.01 -2.51367,0.0193 -3.8086,0.0293 -1.97806,0.0377 -1.97806,0.0377 -3.99609,0.0762 -1.33983,0.015 -2.67967,0.0287 -4.01953,0.041 -3.28556,0.0354 -6.57032,0.0849 -9.85547,0.14648 -1.54362,3.08724 -1.15305,6.34303 -1.15772,9.73169 -0.005,0.79871 -0.0102,1.59742 -0.0154,2.42033 -0.0107,1.73951 -0.0193,3.47902 -0.0261,5.21855 -0.0118,2.76361 -0.0313,5.52706 -0.0531,8.29061 -0.0615,7.85971 -0.11542,15.71941 -0.14901,23.5793 -0.0211,4.80705 -0.0565,9.61382 -0.10076,14.4207 -0.014,1.82297 -0.0229,3.64598 -0.026,5.469 -0.0501,25.865187 -0.0501,25.865187 -7.47182,36.869817 -1.39496,-3.17037 -0.9139,-4.22309 0.375,-7.5625 0.53625,-1.13438 1.0725,-2.26875 1.625,-3.4375 1.26613,-3.798407 1.15257,-7.365557 1.15771,-11.323487 0.005,-0.84911 0.0102,-1.69822 0.0154,-2.57307 0.0107,-1.84482 0.0193,-3.68965 0.0261,-5.53448 0.0118,-2.92139 0.0312,-5.84263 0.0531,-8.76395 0.0616,-8.30646 0.11565,-16.61289 0.14902,-24.91951 0.021,-5.08049 0.0563,-10.1607 0.10076,-15.24104 0.0141,-1.93481 0.0229,-3.86967 0.026,-5.80453 0.005,-2.70971 0.0281,-5.4187 0.0553,-8.12826 -0.003,-0.79658 -0.006,-1.59316 -0.009,-2.41388 0.0718,-4.81613 0.8019,-8.10688 3.4256,-12.29779 4.42556,-3.22371004 10.14065,-2.32878 15.375,-2.3125 z"
     fill="#5cacf5"
     id="path22" />
  <path
     d="m 508.19727,1.471283 c 1.80888,-0.0184 1.80888,-0.0184 3.6543,-0.0371 1.16724,-0.002 2.33449,-0.004 3.53711,-0.006 1.05517,-0.004 2.11035,-0.008 3.19751,-0.0125 3.2853,0.26178 5.97494,1.08207 9.04858,2.24292 0.46063,3.4803 0.11066,4.8312 -1.84375,7.8125 -0.87432,1.07165 -1.76075,2.13348 -2.65625,3.1875 -1.01369,1.24058 -2.02527,2.48288 -3.03516,3.72656 -0.55445,0.67837 -1.10891,1.35674 -1.68017,2.05567 -3.32532,4.13231 -6.51657,8.36738 -9.72217,12.59277 -0.68546,0.9013 -1.37092,1.80259 -2.07715,2.7312 -5.53381,7.28199 -11.03031,14.59139 -16.50586,21.91724 -1.60208,2.14033 -3.20835,4.27747 -4.81543,6.41406 -0.5501,0.73178 -1.10021,1.46357 -1.66699,2.21753 -1.05478,1.40293 -2.11009,2.80546 -3.16602,4.20752 -0.70914,0.94396 -0.70914,0.94396 -1.43261,1.90698 -0.41589,0.55277 -0.83177,1.10553 -1.26026,1.67505 -2.55542,3.32009 -2.55542,3.32009 -3.06787,7.36792 1.13298,3.88449 3.12745,6.27304 5.80469,9.1875 1.01001,1.1452 2.01776,2.2924 3.02344,3.44141 0.51659,0.58668 1.03318,1.17336 1.56543,1.77783 2.44205,2.83094 4.74174,5.767257 7.03613,8.718257 0.45294,0.58072 0.90589,1.16145 1.37256,1.75977 0.91822,1.17829 1.8357,2.35716 2.75244,3.53662 2.28129,2.93019 4.57883,5.84757 6.875,8.76611 2.77726,3.53218 5.55252,7.06587 8.32031,10.60547 0.69743,0.89054 0.69743,0.89054 1.40894,1.79907 0.92205,1.17785 1.84281,2.3567 2.76221,3.53662 2.17999,2.78548 4.38914,5.52894 6.69995,8.20728 0.82371,0.96164 1.64742,1.92328 2.49609,2.91406 0.73605,0.8366 1.47211,1.6732 2.23047,2.53516 1.80417,2.73967 1.93155,4.18786 1.58203,7.40234 -2.97,0.99 -2.97,0.99 -6,2 -0.33,-0.66 -0.66,-1.32 -1,-2 1.65,-0.33 3.3,-0.66 5,-1 -2.61186,-4.84713 -5.46965,-8.99532 -9.125,-13.125 -4.16484,-4.8112 -8.11659,-9.71327 -11.96118,-14.7854 -3.39777,-4.46311 -6.92142,-8.8135 -10.47632,-13.1521 -4.58646,-5.60227 -9.00819,-11.27674 -13.28906,-17.117187 -3.00721,-3.94764 -6.28307,-7.6524 -9.59375,-11.34765 -1.55469,-2.47248 -1.55469,-2.47248 -1.34595,-4.85114 0.8805,-2.91699 2.01802,-4.64556 3.89673,-7.0354 0.96994,-1.25043 0.96994,-1.25043 1.95947,-2.52613 0.70045,-0.88598 1.40089,-1.77197 2.12256,-2.68481 1.47143,-1.89346 2.94146,-3.78801 4.41016,-5.68359 0.74137,-0.95375 1.48274,-1.90749 2.24658,-2.89014 3.1643,-4.11179 6.22484,-8.29618 9.28076,-12.48877 5.74013,-7.84583 11.6694,-15.52912 17.65625,-23.1875 2.86769,-3.66955 5.71784,-7.35115 8.53125,-11.0625 0.69738,-0.91652 1.39477,-1.83305 2.11328,-2.77734 1.72697,-2.28044 1.72697,-2.28044 2.57422,-5.28516 -5.17829,0.069 -10.35577,0.157 -15.53345,0.26245 -1.76032,0.0332 -3.52075,0.0612 -5.28125,0.084 -2.53488,0.0336 -5.0688,0.086 -7.60327,0.14184 -1.17528,0.01 -1.17528,0.01 -2.37431,0.0194 -4.56434,0.12203 -7.52741,0.74093 -11.20772,3.49236 0.3125,-1.875 0.3125,-1.875 1,-4 6.68933,-4.45955004 15.80963,-3.18334 23.5625,-3.1875 z"
     fill="#55bdf3"
     id="path24" />
  <path
     d="m 269.63477,100.65878 c 0.33,0 0.66,0 1,0 2.28925,10.09076 -2.79159,19.68278 -8.01172,28.14453 -3.26503,4.68907 -6.96441,8.80976 -10.98828,12.85547 -0.51691,0.55172 -1.03383,1.10344 -1.56641,1.67187 -12.79049,12.42314 -31.44114,15.84543 -48.53369,15.75049 -17.30057,-0.47857 -33.22226,-6.37966 -45.8999,-18.42236 -2.919,-3.15327 -5.80722,-6.29269 -8,-10 0.495,-1.485 0.495,-1.485 1,-3 0.54527,0.71285 1.09055,1.4257 1.65234,2.16016 11.43245,14.52018 25.89762,23.27378 44.34766,25.83984 17.77771,1.67837 37.00168,-0.83997 51.19531,-12.55078 13.84071,-12.01229 19.89798,-24.85811 23.80469,-42.44922 z"
     fill="#579fee"
     id="path26" />
  <path
     d="m 432.63477,88.658783 c 4.04292,1.55782 6.06088,4.17714 8.75,7.5 0.43683,0.53609 0.87366,1.07218 1.32373,1.62451 1.31624,1.61929 2.62232,3.246297 3.92627,4.875487 0.70898,0.87914 1.41797,1.75828 2.14844,2.66406 1.9588,2.43883 3.90663,4.88604 5.85156,7.33594 4.76833,5.98659 9.57258,11.94064 14.42969,17.85547 1.97518,2.40997 3.93475,4.83215 5.89062,7.25781 0.57726,0.71462 1.15452,1.42925 1.74927,2.16553 1.13971,1.41159 2.27765,2.82462 3.41357,4.23926 5.63804,7.18961 5.63804,7.18961 13.51685,11.48193 -0.33,0.66 -0.66,1.32 -1,2 -8.66635,-1.73327 -13.94081,-9.6231 -18.96875,-16.33594 -1.03125,-1.66406 -1.03125,-1.66406 -1.03125,-3.66406 -0.66,0 -1.32,0 -2,0 -1.76658,-2.06855 -3.42316,-4.14633 -5.0625,-6.3125 -1.00434,-1.30275 -2.00956,-2.60483 -3.01563,-3.90625 -0.49822,-0.64711 -0.99644,-1.29422 -1.50976,-1.96094 -3.37491,-4.35051 -6.90994,-8.57231 -10.41211,-12.82031 -1.17746,-1.4398 -2.35451,-2.87993 -3.53125,-4.32031 -1.26033,-1.53914 -2.52075,-3.0782 -3.78125,-4.61719 -0.59917,-0.73452 -1.19834,-1.46905 -1.81567,-2.22583 -0.57259,-0.69763 -1.14517,-1.39525 -1.73511,-2.114007 -0.50829,-0.62125 -1.01659,-1.2425 -1.54028,-1.88257 -1.7753,-2.04625 -3.6737,-3.93276 -5.59644,-5.84009 0.0111,0.76786 0.0222,1.53572 0.0336,2.32684 0.10021,7.239037 0.17632,14.477747 0.22541,21.717297 0.0261,3.72192 0.0615,7.44326 0.11814,11.16484 0.0544,3.59214 0.0842,7.18372 0.0972,10.77623 0.009,1.36999 0.0273,2.73996 0.0543,4.10972 0.0363,1.91956 0.0384,3.83966 0.039,5.75956 0.0111,1.09254 0.0222,2.18508 0.0336,3.31073 -0.60125,2.83478 -0.60125,2.83478 -3.01173,5.21887 -2.58952,1.61591 -2.58952,1.61591 -4.58952,1.61591 0,-0.99 0,-1.98 0,-3 1.98,-0.99 1.98,-0.99 4,-2 0.008,-0.7723 0.0162,-1.5446 0.0245,-2.3403 0.0779,-7.26931 0.16512,-14.5384 0.26302,-21.80746 0.05,-3.73733 0.0963,-7.47463 0.13435,-11.2121 0.0368,-3.60518 0.0832,-7.21012 0.13618,-10.8151 0.0186,-1.3771 0.0337,-2.75426 0.0453,-4.13143 0.0168,-1.92515 0.047,-3.850167 0.0778,-5.775147 0.0133,-1.09699 0.0267,-2.19397 0.0404,-3.32419 0.27845,-2.59427 0.27845,-2.59427 2.27845,-4.59427 z"
     fill="#55a7ec"
     id="path28" />
  <path
     d="m 63.634766,2.658783 c 7.62344,-0.0927 15.24681,-0.16378 22.87069,-0.20725 3.54021,-0.0209 7.08004,-0.0492 10.62003,-0.0945 4.070844,-0.0518 8.141274,-0.0712 12.212404,-0.0889 1.90487,-0.031 1.90487,-0.031 3.84821,-0.0626 1.77138,-4.5e-4 1.77138,-4.5e-4 3.57855,-9.1e-4 1.03925,-0.009 2.07849,-0.0178 3.14923,-0.0269 3.44209,0.60852 4.61175,1.74255 6.72089,4.48102 0.51758,3.05273 0.51758,3.05273 0.53125,6.59375 0.008,1.91619 0.008,1.91619 0.0156,3.87109 -0.0126,0.99363 -0.0126,0.99363 -0.0254,2.00733 -0.0214,2.02221 -1.9e-4,4.04088 0.0254,6.06299 -0.005,1.27746 -0.0103,2.55492 -0.0156,3.87109 -0.005,1.16854 -0.009,2.33707 -0.0137,3.54102 -0.51755,3.05277 -0.51755,3.05277 -1.97946,5.44046 -3.81789,2.42529 -7.24651,2.1105 -11.67872,2.00293 -0.7823,-0.004 -1.56459,-0.008 -2.3706,-0.0122 -2.91316,-0.0209 -5.82599,-0.0767 -8.73877,-0.12842 -9.776254,-0.12375 -9.776254,-0.12375 -19.750004,-0.25 -0.33,21.45 -0.66,42.9 -1,64.999997 -0.33,0 -0.66,0 -1,0 -0.17685,-8.440207 -0.34281,-16.880527 -0.49478,-25.321217 -0.0709,-3.9191 -0.14559,-7.83805 -0.22885,-11.75691 -0.0802,-3.77996 -0.15051,-7.56 -0.21394,-11.34028 -0.026,-1.4442 -0.0555,-2.88834 -0.0887,-4.3324 -0.0457,-2.01825 -0.0777,-4.03681 -0.10899,-6.05534 -0.0222,-1.15028 -0.0444,-2.30056 -0.0673,-3.48569 0.20256,-2.70816 0.20256,-2.70816 2.20256,-4.70816 1.83499,-0.27847 1.83499,-0.27847 4.08252,-0.31885 0.84072,-0.0199 1.68144,-0.0397 2.54764,-0.0602 0.90837,-0.0115 1.81675,-0.0231 2.75265,-0.035 0.92941,-0.0194 1.85881,-0.0387 2.81638,-0.0587 2.97517,-0.0599 5.95039,-0.10622 8.925814,-0.15225 2.01434,-0.0382 4.02866,-0.0772 6.04297,-0.11719 4.94388,-0.0962 9.88783,-0.18015 14.83203,-0.25781 0.0247,-4.09342 0.0429,-8.1868 0.0549,-12.28027 0.005,-1.39292 0.0119,-2.78582 0.0205,-4.17871 0.0121,-2.00063 0.0173,-4.0013 0.0222,-6.00196 0.005,-1.20447 0.0105,-2.40893 0.0159,-3.6499 0.0873,-2.83053 0.0873,-2.83053 -1.11353,-4.88916 -2.97106,-0.4597 -2.97106,-0.4597 -6.65625,-0.58984 -0.70387,-0.0368 -1.40774,-0.0736 -2.13293,-0.11156 -9.8964,-0.48235 -19.805674,-0.6583 -29.710824,-0.8611 -1.9987,-0.0433 -3.9974,-0.0869 -5.99609,-0.13086 -4.83454,-0.1056 -9.66918,-0.20725 -14.50388,-0.30664 0,-0.33 0,-0.66 0,-1 z"
     fill="#5bb0f0"
     id="path30" />
  <path
     d="m 282.63477,37.658783 c 0.33,0 0.66,0 1,0 -0.0174,0.99967 -0.0174,0.99967 -0.0352,2.01953 -0.1476,15.08052 1.03685,27.67782 12.0352,38.98047 10.58035,8.65307 23.50364,12.69209 36.35474,16.625 1.9865,0.6116 3.96624,1.24209 5.94604,1.875 1.75051,0.54141 1.75051,0.54141 3.53638,1.09375 4.72882,2.102507 7.32939,5.156077 10.16284,9.406247 0.079,2.33199 0.088,4.66833 0,7 -0.33,0 -0.66,0 -1,0 -0.22688,-0.86625 -0.45375,-1.7325 -0.6875,-2.625 -1.69823,-4.36687 -3.89608,-8.05128 -8.07202,-10.33887 -2.01793,-0.79742 -4.04002,-1.46613 -6.11548,-2.098627 -0.74451,-0.24549 -1.48903,-0.49097 -2.2561,-0.7439 -2.28406,-0.75004 -4.57504,-1.47419 -6.8689,-2.1936 -11.5028,-3.66888 -22.47157,-7.33582 -32,-15 0,-0.66 0,-1.32 0,-2 -0.66,0 -1.32,0 -2,0 0,-0.66 0,-1.32 0,-2 -0.66,0 -1.32,0 -2,0 -9.55279,-10.8083 -10.62521,-23.31484 -10,-37 0.66,0 1.32,0 2,0 0,-0.99 0,-1.98 0,-3 z"
     fill="#53b2f1"
     id="path32" />
  <path
     d="m 45.634766,58.658783 c 0.33,0 0.66,0 1,0 0.57573,15.2016 1.05796,30.39331 1.13029,45.606377 0.0103,2.06329 0.0242,4.12653 0.0393,6.18979 0.01,1.37589 0.0198,2.75177 0.0297,4.12766 0.005,0.6779 0.01,1.35581 0.0149,2.05426 0.0237,3.50225 0.0379,7.00419 0.0364,10.50653 -6.3e-4,2.81222 0.0117,5.62378 0.039,8.43587 0.0252,2.60526 0.0318,5.21079 0.0172,7.81613 0.0164,1.16094 0.0328,2.32189 0.0497,3.51802 0.004,1.0168 0.007,2.03361 0.011,3.08122 0.85435,3.59853 2.62699,4.65916 5.63251,6.66414 -1.485,0.495 -1.485,0.495 -3,1 -4.6597,-2.99552 -4.6597,-2.99552 -5.64035,-5.89014 -0.35875,-2.1046 -0.4866,-4.04636 -0.48904,-6.18017 -0.003,-0.80019 -0.006,-1.60038 -0.009,-2.42482 0.002,-0.86786 0.004,-1.73572 0.006,-2.62987 -10e-4,-0.91938 -0.003,-1.83876 -0.004,-2.78599 -0.002,-3.02971 0.004,-6.05932 0.0118,-9.08901 8.8e-4,-1.03191 0.002,-2.06381 0.003,-3.12698 0.02164,-22.29914 0.50028,-44.583487 1.12159,-66.873017 z"
     fill="#4cb0ed"
     id="path34" />
  <path
     d="m 479.63477,90.658783 c 4.23897,4.07196 7.97076,8.45062 11.6875,12.999997 0.61722,0.75257 1.23444,1.50514 1.87036,2.28052 4.85602,5.94593 9.55622,11.99409 14.20483,18.10278 2.24377,2.93177 4.52099,5.83715 6.79981,8.7417 0.68256,0.87423 0.68256,0.87423 1.37891,1.76611 2.19862,2.80262 4.42687,5.56395 6.7539,8.26123 0.82242,0.96036 1.64485,1.92071 2.49219,2.91016 0.73605,0.8366 1.47211,1.6732 2.23047,2.53516 1.80417,2.73966 1.93155,4.18786 1.58203,7.40234 -2.97,0.99 -2.97,0.99 -6,2 -0.33,-0.66 -0.66,-1.32 -1,-2 2.475,-0.495 2.475,-0.495 5,-1 -2.61186,-4.84713 -5.46965,-8.99532 -9.125,-13.125 -4.16484,-4.8112 -8.11659,-9.71327 -11.96118,-14.7854 -3.39779,-4.46313 -6.92216,-8.81286 -10.47632,-13.1521 -3.97545,-4.87166 -7.9294,-9.7555 -11.75,-14.749997 -0.71801,-0.93457 -1.43602,-1.86914 -2.17578,-2.83203 -1.51172,-2.35547 -1.51172,-2.35547 -1.51172,-5.35547 z"
     fill="#5dabf0"
     id="path36" />
  <path
     d="m 284.63477,116.65878 c 0.66,0.33 1.32,0.66 2,1 -0.63418,6.34183 -1.93445,12.4265 -3.37891,18.63281 -0.5926,3.21275 -0.73494,6.11015 -0.62109,9.36719 5.51979,2.93805 10.76401,5.06601 16.8125,6.625 0.80808,0.2131 1.61616,0.4262 2.44873,0.64575 6.89783,1.7208 13.77511,2.58543 20.85913,3.09693 1.96545,0.1502 3.92428,0.38311 5.87964,0.63232 0.33,0.66 0.66,1.32 1,2 -12.64306,4.57938 -32.78789,-3.21874 -44.4375,-8.1875 -3.5625,-1.8125 -3.5625,-1.8125 -5.5625,-3.8125 -0.44782,-10.29993 2.25767,-20.17862 5,-30 z"
     fill="#519fea"
     id="path38" />
  <path
     d="m 47.634766,39.658783 c 0.36076,2.1387 0.36076,2.1387 0.34058,4.81689 -3.4e-4,1.50133 -3.4e-4,1.50133 -6.9e-4,3.03299 -0.0155,1.08337 -0.031,2.16674 -0.0469,3.28293 -0.004,1.10697 -0.008,2.21395 -0.0129,3.35446 -0.0168,3.54616 -0.0545,7.09175 -0.0926,10.63773 -0.015,2.39973 -0.0287,4.79947 -0.041,7.19922 -0.0331,5.89212 -0.0834,11.78391 -0.14648,17.67578 -0.33,0 -0.66,0 -1,0 -0.33,4.29 -0.66,8.58 -1,12.999997 -0.33,0 -0.66,0 -1,0 0,-20.789997 0,-41.579997 0,-62.999997 -11.88,0 -23.76,0 -36.0000004,0 0,-0.33 0,-0.66 0,-1 5.0716404,-0.19236 10.1435004,-0.37106 15.2160604,-0.53711 1.72572,-0.0584 3.45132,-0.12057 5.17676,-0.18652 2.47951,-0.0941 4.95915,-0.17484 7.43921,-0.25293 0.77197,-0.0322 1.54395,-0.0644 2.33931,-0.0976 3.85907,-0.10804 5.53087,-0.1244 8.82866,2.07413 z"
     fill="#3ccaf5"
     id="path40" />
  <path
     d="m 384.63477,116.65878 c 0.99,0.33 1.98,0.66 3,1 -2.41102,13.15725 -8.48714,23.58643 -19,32 -9.90354,6.34771 -23.10524,10.50667 -35,10 -0.66,-0.66 -1.32,-1.32 -2,-2 1.67294,-1.67294 3.81769,-1.33229 6.06641,-1.54395 12.03989,-1.16962 23.90354,-3.87652 32.93359,-12.45605 0.68707,-0.64711 1.37414,-1.29422 2.08203,-1.96094 6.88491,-7.07651 10.54605,-15.29119 11.91797,-25.03906 z"
     fill="#5b9eea"
     id="path42" />
  <path
     d="m 432.63477,88.658783 c 1.32,0.66 2.64,1.32 4,2 -0.33,0.99 -0.66,1.98 -1,3 -0.99,-0.66 -1.98,-1.32 -3,-2 0.0111,0.76786 0.0222,1.53572 0.0336,2.32684 0.10021,7.239037 0.17632,14.477747 0.22541,21.717297 0.0261,3.72192 0.0615,7.44326 0.11814,11.16484 0.0544,3.59214 0.0842,7.18372 0.0972,10.77623 0.009,1.36999 0.0273,2.73996 0.0543,4.10972 0.0363,1.91956 0.0384,3.83966 0.039,5.75956 0.0111,1.09254 0.0222,2.18508 0.0336,3.31073 -0.60125,2.83478 -0.60125,2.83478 -3.01173,5.21887 -2.58952,1.61591 -2.58952,1.61591 -4.58952,1.61591 0,-0.99 0,-1.98 0,-3 1.98,-0.99 1.98,-0.99 4,-2 0.008,-0.7723 0.0162,-1.5446 0.0245,-2.3403 0.0779,-7.26931 0.16512,-14.5384 0.26302,-21.80746 0.05,-3.73733 0.0963,-7.47463 0.13435,-11.2121 0.0368,-3.60518 0.0832,-7.21012 0.13618,-10.8151 0.0186,-1.3771 0.0337,-2.75426 0.0453,-4.13143 0.0168,-1.92515 0.047,-3.850167 0.0778,-5.775147 0.0133,-1.09699 0.0267,-2.19397 0.0404,-3.32419 0.27845,-2.59427 0.27845,-2.59427 2.27845,-4.59427 z"
     fill="#57a2e6"
     id="path44" />
  <path
     d="m 508.19727,1.471283 c 1.80888,-0.0184 1.80888,-0.0184 3.6543,-0.0371 1.16724,-0.002 2.33449,-0.004 3.53711,-0.006 1.05517,-0.004 2.11035,-0.008 3.19751,-0.0125 3.2853,0.26178 5.97494,1.08207 9.04858,2.24292 0.35281,4.19701 -0.35815,6.06522 -3,9.3125 -0.55688,0.69738 -1.11375,1.39477 -1.6875,2.11328 -0.43313,0.51949 -0.86625,1.03899 -1.3125,1.57422 -0.99,-0.33 -1.98,-0.66 -3,-1 0.63229,-0.81404 0.63229,-0.81404 1.27734,-1.64453 0.54785,-0.71543 1.09571,-1.43086 1.66016,-2.16797 0.81791,-1.06154 0.81791,-1.06154 1.65234,-2.14453 1.57872,-2.08422 1.57872,-2.08422 2.41016,-5.04297 -5.17829,0.069 -10.35577,0.157 -15.53345,0.26245 -1.76032,0.0332 -3.52075,0.0612 -5.28125,0.084 -2.53488,0.0336 -5.0688,0.086 -7.60327,0.14184 -1.17528,0.01 -1.17528,0.01 -2.37431,0.0194 -4.56434,0.12203 -7.52741,0.74093 -11.20772,3.49236 0.3125,-1.875 0.3125,-1.875 1,-4 6.68933,-4.45955004 15.80963,-3.18334 23.5625,-3.1875 z"
     fill="#58c4f8"
     id="path46" />
  <path
     d="m 286.63477,114.65878 c 6.11601,0.3336 11.55099,1.65525 17.375,3.4375 13.59563,4.12275 26.71806,6.72821 40.69922,2.60937 2.39271,-1.3007 2.96033,-2.54807 3.92578,-5.04687 0.66,0 1.32,0 2,0 -0.66431,2.65722 -1.33696,4.49228 -3.55078,6.1875 -12.37442,7.20737 -27.26999,3.83582 -40.38233,0.39014 -3.88765,-1.08649 -7.7002,-2.35536 -11.48877,-3.74561 -2.84092,-0.91684 -5.62722,-1.40493 -8.57812,-1.83203 0,-0.66 0,-1.32 0,-2 z"
     fill="#53a6f0"
     id="path48" />
  <path
     d="m 482.63477,6.658783 c 0.66553,1.75586 0.66553,1.75586 1,4 -1.02881,1.91602 -1.02881,1.91602 -2.64844,3.90625 -0.8828,1.10614 -0.8828,1.10614 -1.78344,2.23462 -0.64123,0.77851 -1.28246,1.55703 -1.94312,2.35913 -1.30937,1.63349 -2.61796,3.26761 -3.92578,4.90234 -0.64018,0.79262 -1.28036,1.58523 -1.93994,2.40186 -2.17109,2.7098 -4.25398,5.4689 -6.32178,8.2583 -0.68578,0.91523 -1.37156,1.83047 -2.07813,2.77344 -1.3163,1.76524 -2.63032,3.53221 -3.93554,5.30566 -1.73604,2.35577 -3.48548,4.70113 -5.23633,7.0459 -0.5518,0.75612 -1.1036,1.51223 -1.67212,2.29126 -0.52714,0.70181 -1.05429,1.40363 -1.59741,2.12671 -0.4664,0.63059 -0.9328,1.26118 -1.41333,1.91089 -1.77682,1.75203 -3.07124,2.09828 -5.50464,2.48364 10.125,-13.5 10.125,-13.5 12.44922,-16.59766 1.8173,-2.42283 3.63186,-4.84771 5.44531,-7.27343 5.65808,-7.56329 11.35654,-15.09024 17.14453,-22.55469 1.38125,-1.81323 2.69656,-3.67765 3.96094,-5.57422 z"
     fill="#54b9f2"
     id="path50" />
  <path
     d="m 42.634766,1.658783 c 11.88,0 23.76,0 36,0 0,0.33 0,0.66 0,1 13.86,0.495 13.86,0.495 28.000004,1 0,0.33 0,0.66 0,1 -28.380004,0 -56.760004,0 -86.000004,0 0,-0.33 0,-0.66 0,-1 7.26,-0.33 14.52,-0.66 22,-1 0,-0.33 0,-0.66 0,-1 z"
     fill="#42d3fd"
     id="path52" />
  <path
     d="m 153.94727,1.471283 c 0.93779,-0.0122 1.87559,-0.0245 2.8418,-0.0371 5.02178,-0.0106 9.1417,0.23112 13.8457,2.22461 0.495,2.475 0.495,2.475 1,5 -0.52562,-0.48896 -1.05123,-0.97792 -1.59277,-1.48169 -3.14863,-1.98594 -5.21827,-1.8618 -8.92286,-1.81128 -1.25039,0.01 -2.50078,0.0193 -3.78906,0.0293 -1.95293,0.0377 -1.95293,0.0377 -3.94531,0.0762 -1.31742,0.0135 -2.63484,0.0271 -3.99219,0.041 -3.25301,0.0353 -6.50521,0.0847 -9.75781,0.14648 -0.049,0.89203 -0.098,1.78406 -0.14844,2.70313 -0.0748,1.17046 -0.14953,2.34093 -0.22656,3.54687 -0.0696,1.16016 -0.13922,2.32031 -0.21094,3.51563 -0.37654,2.94131 -0.89147,4.73386 -2.41406,7.23437 -0.10819,-2.58446 -0.18737,-5.16437 -0.25,-7.75 -0.0335,-0.72961 -0.067,-1.45922 -0.10156,-2.21094 -0.0647,-3.56052 0.0209,-5.5954 2.17968,-8.49218 4.76996,-3.39731004 9.8726,-2.73057 15.48438,-2.73438 z"
     fill="#4ec5f7"
     id="path54" />
  <path
     d="m 264.63477,3.658783 c 2.3125,-0.3125 2.3125,-0.3125 5,0 3.31951,4.06811 3.38753,7.88083 3.24878,12.91138 -0.009,0.78101 -0.0186,1.56203 -0.0282,2.36671 -0.0343,2.57052 -0.0902,5.14007 -0.14633,7.71019 -0.0281,1.78645 -0.0547,3.57293 -0.0801,5.35942 -0.0703,4.69383 -0.15908,9.38714 -0.25166,14.08058 -0.0913,4.79261 -0.16514,9.58548 -0.24048,14.37836 -0.15028,9.39813 -0.32,18.7958 -0.50195,28.19336 -0.33,0 -0.66,0 -1,0 -0.008,-0.99558 -0.0162,-1.99117 -0.0245,-3.01692 -0.0774,-9.37337 -0.16514,-18.74658 -0.26302,-28.11976 -0.05,-4.81907 -0.0963,-9.63813 -0.13435,-14.45731 -0.0368,-4.64906 -0.0832,-9.29792 -0.13618,-13.94682 -0.0186,-1.77541 -0.0337,-3.55086 -0.0453,-5.32633 -0.0168,-2.48303 -0.0459,-4.96565 -0.0778,-7.44853 -0.002,-0.73728 -0.004,-1.47455 -0.007,-2.23416 -0.0605,-3.69265 -0.20798,-5.29427 -2.31191,-8.45017 -0.99,-0.66 -1.98,-1.32 -3,-2 z"
     fill="#5dbefd"
     id="path56" />
  <path
     d="m 63.634766,2.658783 c 7.62344,-0.0927 15.24681,-0.16378 22.87069,-0.20725 3.54021,-0.0209 7.08004,-0.0492 10.62003,-0.0945 4.070844,-0.0518 8.141274,-0.0712 12.212404,-0.0889 1.90487,-0.031 1.90487,-0.031 3.84821,-0.0626 1.77138,-4.5e-4 1.77138,-4.5e-4 3.57855,-9.1e-4 1.03925,-0.009 2.07849,-0.0178 3.14923,-0.0269 3.43511,0.60729 4.62341,1.74229 6.72089,4.48102 0.17187,2.79687 0.17187,2.79687 -0.25,5.75 -0.12891,0.98484 -0.25781,1.96969 -0.39063,2.98437 -0.11859,0.74766 -0.23718,1.49532 -0.35937,2.26563 -0.33,0 -0.66,0 -1,0 -0.0606,-0.69867 -0.12117,-1.39734 -0.18359,-2.11719 -0.0838,-0.91008 -0.16758,-1.82015 -0.25391,-2.75781 -0.0812,-0.90492 -0.16242,-1.80984 -0.24609,-2.74219 -0.1863,-2.39392 -0.1863,-2.39392 -1.31641,-4.38281 -2.97106,-0.4597 -2.97106,-0.4597 -6.65625,-0.58984 -0.70387,-0.0368 -1.40774,-0.0736 -2.13293,-0.11156 -9.8964,-0.48235 -19.805674,-0.6583 -29.710824,-0.8611 -1.9987,-0.0433 -3.9974,-0.0869 -5.99609,-0.13086 -4.83457,-0.10556 -9.66921,-0.20721 -14.50391,-0.3066 0,-0.33 0,-0.66 0,-1 z"
     fill="#56bff7"
     id="path58" />
  <path
     d="m 396.63477,94.658783 c 0.33,0 0.66,0 1,0 0.33,19.469997 0.66,38.939997 1,58.999997 1.98,0.66 3.96,1.32 6,2 0,0.66 0,1.32 0,2 -5.5049,-1.34564 -5.5049,-1.34564 -7.68367,-4.22527 -1.48337,-3.12684 -1.65055,-5.0421 -1.56511,-8.48298 0.0203,-1.12079 0.0405,-2.24157 0.0614,-3.39632 0.0373,-1.19912 0.0747,-2.39825 0.1132,-3.63371 0.0264,-1.23591 0.0529,-2.47181 0.0801,-3.74516 0.0728,-3.27353 0.15896,-6.54634 0.25166,-9.81935 0.0914,-3.34479 0.16493,-6.68992 0.24048,-10.0351 0.15108,-6.55451 0.3198,-13.10839 0.50194,-19.662107 z"
     fill="#5aa9f3"
     id="path60" />
  <path
     d="m 417.96289,1.529873 c 4.55119,-0.13439 8.44038,0.43631 12.67188,2.12891 1.5625,1.875 1.5625,1.875 2,4 -0.875,2.25 -0.875,2.25 -2,4 -0.46407,-1.20657 -0.46407,-1.20657 -0.9375,-2.4375 -0.82586,-2.45331 -0.82586,-2.45331 -2.0625,-3.5625 -1.85175,-0.15787 -3.7091,-0.25108 -5.56641,-0.31641 -1.68706,-0.0628 -1.68706,-0.0628 -3.4082,-0.12695 -1.18401,-0.0393 -2.36801,-0.0786 -3.58789,-0.11914 -1.18788,-0.0432 -2.37575,-0.0864 -3.59961,-0.13086 -2.94584,-0.10648 -5.89177,-0.20849 -8.83789,-0.30664 0.33,-0.66 0.65999,-1.32 1,-2 4.72389,-0.80118 9.5485,-0.86427 14.32812,-1.12891 z"
     fill="#4dc8f5"
     id="path62" />
  <path
     d="m 494.63477,1.658783 c 4.37494,-0.0583 8.74979,-0.0937 13.125,-0.125 1.2375,-0.0168 2.475,-0.0335 3.75,-0.0508 1.19883,-0.006 2.39766,-0.0129 3.63281,-0.0195 1.09973,-0.0105 2.19946,-0.0209 3.33252,-0.0317 3.34424,0.24031 6.03676,1.03796 9.15967,2.22705 0.35281,4.19701 -0.35815,6.06522 -3,9.3125 -0.55688,0.69738 -1.11375,1.39477 -1.6875,2.11328 -0.43313,0.51949 -0.86625,1.03899 -1.3125,1.57422 -0.99,-0.33 -1.98,-0.66 -3,-1 0.63229,-0.81404 0.63229,-0.81404 1.27734,-1.64453 0.54785,-0.71543 1.09571,-1.43086 1.66016,-2.16797 0.81791,-1.06154 0.81791,-1.06154 1.65234,-2.14453 1.57872,-2.08422 1.57872,-2.08422 2.41016,-5.04297 -4.04064,-0.74017 -7.95082,-1.16833 -12.05469,-1.31641 -1.10859,-0.0419 -2.21719,-0.0838 -3.35937,-0.12695 -1.14211,-0.0393 -2.28422,-0.0786 -3.46094,-0.11914 -1.16531,-0.0432 -2.33063,-0.0864 -3.53125,-0.13086 -2.86448,-0.10571 -5.72903,-0.20781 -8.59375,-0.30669 0,-0.33 0,-0.66 0,-1 z"
     fill="#2de9fc"
     id="path64" />
  <path
     d="m 403.63477,154.65878 c 7.26,0 14.52,0 22,0 0,0.99 0,1.98 0,3 -6.93,0 -13.86,0 -21,0 -0.33,-0.99 -0.66,-1.98 -1,-3 z"
     fill="#5293db"
     id="path66" />
  <path
     d="m 125.63477,7.658783 c 0.33,0 0.66,0 1,0 0.11605,4.58312 0.1872,9.16586 0.25,13.75 0.0335,1.30195 0.067,2.60391 0.10156,3.94531 0.0129,1.25039 0.0258,2.50078 0.0391,3.78906 0.0209,1.15211 0.0419,2.3042 0.0635,3.49122 -0.54422,3.62466 -1.64867,4.76259 -4.4541,7.02441 -0.99,-0.33 -1.98,-0.66 -3,-1 0.64292,-0.19513 1.28584,-0.39026 1.94824,-0.59131 2.36888,-1.28275 2.36888,-1.28275 2.68946,-4.29785 0.0628,-1.20447 0.12568,-2.40894 0.19042,-3.6499 0.0773,-1.30196 0.15469,-2.60391 0.23438,-3.94532 0.0629,-1.38018 0.12541,-2.76039 0.1875,-4.14062 0.0764,-1.38812 0.15447,-2.77614 0.23437,-4.16406 0.18901,-3.4031 0.36009,-6.80617 0.51557,-10.21094 z"
     fill="#52afeb"
     id="path68" />
  <path
     d="m 436.63477,91.658783 c 4.00815,3.83229 7.42829,7.92522 10.8125,12.312497 0.50209,0.64518 1.00418,1.29035 1.52148,1.95508 1.22508,1.57509 2.44598,3.15342 3.66602,4.73242 -0.99,0.33 -1.98,0.66 -3,1 -0.77086,-0.98742 -1.54172,-1.97484 -2.33594,-2.99219 -1.01295,-1.29432 -2.02597,-2.58859 -3.03906,-3.88281 -0.50789,-0.65098 -1.01578,-1.30195 -1.53906,-1.97266 -0.48985,-0.62519 -0.97969,-1.25039 -1.48438,-1.89453 -0.45036,-0.57605 -0.90073,-1.152097 -1.36474,-1.745597 -1.30504,-1.64688 -1.30504,-1.64688 -3.23682,-3.51221 0,-1.32 0,-2.64 0,-4 z"
     fill="#4eb6f2"
     id="path70" />
  <path
     d="m 515.88477,154.47128 c 1.2607,0.0203 1.2607,0.0203 2.54687,0.041 2.06799,0.0353 4.13564,0.0891 6.20313,0.14648 -0.99,1.485 -0.99,1.485 -2,3 -2.06299,0.34058 -2.06299,0.34058 -4.57031,0.29297 -0.8959,-0.01 -1.7918,-0.0193 -2.71485,-0.0293 -1.40572,-0.0377 -1.40572,-0.0377 -2.83984,-0.0762 -0.94488,-0.0135 -1.88977,-0.0271 -2.86328,-0.041 -2.33781,-0.0354 -4.67448,-0.0848 -7.01172,-0.14648 3.8333,-4.01233 8.09432,-3.34459 13.25,-3.1875 z"
     fill="#559be4"
     id="path72" />
  <path
     d="m 234.63477,88.658783 c 0.99,0 1.98,0 3,0 -0.82838,8.69181 -1.96745,15.739287 -7,22.999997 -1.1955,-3.7229 -0.50964,-5.27651 1.16406,-8.78516 1.71179,-4.535417 2.16855,-9.433167 2.83594,-14.214837 z"
     fill="#54a6e7"
     id="path74" />
  <path
     d="m 171.63477,82.658783 c 2.90528,2.90528 2.71264,6.21099 3.125,10.125 0.0864,0.7541 0.17273,1.5082 0.26172,2.28516 0.21217,1.86241 0.41374,3.72603 0.61328,5.589837 -0.99,0 -1.98,0 -3,0 -1.20393,-3.753997 -1.09878,-7.332167 -1.0625,-11.249997 0.009,-1.26328 0.0181,-2.52656 0.0273,-3.82813 0.0116,-0.96421 0.0232,-1.92843 0.0352,-2.92187 z"
     fill="#56adf2"
     id="path76" />
  <path
     d="m 282.63477,37.658783 c 0.33,0 0.66,0 1,0 -0.11362,2.79256 -0.24036,5.58344 -0.375,8.375 -0.0309,0.79406 -0.0619,1.58812 -0.0937,2.40625 -0.30469,5.99219 -0.30469,5.99219 -2.53125,8.21875 0,-5.28 0,-10.56 0,-16 0.66,0 1.32,0 2,0 0,-0.99 0,-1.98 0,-3 z"
     fill="#53b8f7"
     id="path78" />
  <path
     d="m 138.63477,3.658783 c 0.66,0.33 1.32,0.66 2,1 -0.33,0.99 -0.66,1.98 -1,3 -0.38363,2.56219 -0.7386,5.11792 -1.0625,7.6875 -0.0909,0.70189 -0.18176,1.40379 -0.27539,2.12695 -0.22337,1.72818 -0.44309,3.45682 -0.66211,5.18555 -0.33,0 -0.66,0 -1,0 -0.0539,-2.60444 -0.0936,-5.20777 -0.125,-7.8125 -0.0168,-0.73799 -0.0335,-1.47598 -0.0508,-2.23633 -0.035,-3.86363 -0.0182,-5.66021 2.17578,-8.95117 z"
     fill="#5db9f7"
     id="path80" />
  <path
     d="m 341.63477,100.65878 c 4.31566,0.47952 6.20199,1.70235 9,5 1.47832,2.95665 1.06033,5.7423 1,9 -0.33,0 -0.66,0 -1,0 -0.22688,-0.86625 -0.45375,-1.7325 -0.6875,-2.625 -1.84698,-4.74938 -4.71165,-7.77415 -8.3125,-11.375 z"
     fill="#58adf6"
     id="path82" />
  <path
     d="m 523.63477,145.65878 c 4.92308,4.30769 4.92308,4.30769 5.3125,7.8125 -0.10312,0.72187 -0.20625,1.44375 -0.3125,2.1875 -1.98,0.66 -3.96,1.32 -6,2 -0.33,-0.66 -0.66,-1.32 -1,-2 1.65,-0.33 3.3,-0.66 5,-1 -0.495,-0.92813 -0.99,-1.85625 -1.5,-2.8125 -1.5,-3.1875 -1.5,-3.1875 -1.5,-6.1875 z"
     fill="#50b2ed"
     id="path84" />
  <path
     d="m 287.63477,69.658783 c 1.66667,1.66667 3.33333,3.33333 5,5 0.92813,0.88687 1.85625,1.77375 2.8125,2.6875 2.1875,2.3125 2.1875,2.3125 2.1875,4.3125 -0.99,0 -1.98,0 -3,0 0,-0.66 0,-1.32 0,-2 -0.66,0 -1.32,0 -2,0 0,-0.66 0,-1.32 0,-2 -0.66,0 -1.32,0 -2,0 -2.74376,-2.95481 -3,-3.77472 -3,-8 z"
     fill="#4bbaf2"
     id="path86" />
  <path
     d="m 377.63477,11.658783 c 0.66,0 1.32,0 2,0 0.0833,4.83335 -0.0474,9.23693 -1,14 -0.99,-0.33 -1.98,-0.66 -3,-1 0.66,-4.29 1.32,-8.58 2,-13 z"
     fill="#4dbde9"
     id="path88" />
  <path
     d="m 353.63477,38.658783 c 5.45479,0.56821 9.91059,1.94638 15,4 0,0.33 0,0.66 0,1 -1.41702,-0.14231 -2.83361,-0.28901 -4.25,-0.4375 -1.18336,-0.12182 -1.18336,-0.12182 -2.39063,-0.24609 -2.18302,-0.29276 -4.23669,-0.73705 -6.35937,-1.31641 0,-0.66 0,-1.32 0,-2 -0.66,-0.33 -1.32,-0.66 -2,-1 z"
     fill="#50baf3"
     id="path90" />
  <path
     d="m 396.63477,142.65878 c 0.33,0 0.66,0 1,0 0.33,3.63 0.66,7.26 1,11 1.98,0.66 3.96,1.32 6,2 0,0.66 0,1.32 0,2 -3.43847,-0.84051 -5.52409,-1.47803 -7.9375,-4.125 -1.48511,-4.01852 -0.84343,-6.68636 -0.0625,-10.875 z"
     fill="#599def"
     id="path92" />
  <path
     d="m 370.63477,147.65878 c -1.38552,1.01424 -2.78394,2.01087 -4.1875,3 -0.7773,0.55687 -1.55461,1.11375 -2.35547,1.6875 -2.7404,1.46387 -4.39804,1.5733 -7.45703,1.3125 1.38673,-2.77346 3.13034,-3.29926 5.875,-4.6875 0.8843,-0.45762 1.76859,-0.91523 2.67969,-1.38672 2.44531,-0.92578 2.44531,-0.92578 5.44531,0.0742 z"
     fill="#53acef"
     id="path94" />
  <path
     d="m 248.63477,142.65878 c -1.14657,3.43971 -1.84518,3.87822 -4.8125,5.75 -0.68707,0.44859 -1.37414,0.89719 -2.08203,1.35937 -2.50482,1.05956 -3.59828,0.81463 -6.10547,-0.10937 1.7881,-1.17213 3.58059,-2.33756 5.375,-3.5 0.99773,-0.64969 1.99547,-1.29938 3.02344,-1.96875 2.60156,-1.53125 2.60156,-1.53125 4.60156,-1.53125 z"
     fill="#52a9f1"
     id="path96" />
  <path
     d="m 479.63477,90.658783 c 3.9252,3.70091 6.9458,7.5496 10,11.999997 -2.90086,-0.35298 -3.89517,-0.88728 -5.92188,-3.066407 -0.60328,-0.82371 -1.20656,-1.64742 -1.82812,-2.49609 -0.61359,-0.82629 -1.22719,-1.65258 -1.85938,-2.50391 -0.4589,-0.63808 -0.91781,-1.27617 -1.39062,-1.93359 0.33,-0.66 0.66,-1.32 1,-2 z"
     fill="#58aeec"
     id="path98" />
  <path
     d="m 317.63477,122.65878 c 6.27,0.33 12.54,0.66 19,1 0,0.33 0,0.66 0,1 -2.20754,0.19656 -4.41609,0.38185 -6.625,0.5625 -1.22977,0.10441 -2.45953,0.20883 -3.72656,0.31641 -3.40471,0.113 -6.32402,-0.18845 -9.64844,-0.87891 0.33,-0.66 0.66,-1.32 1,-2 z"
     fill="#599dea"
     id="path100" />
  <path
     d="m 269.63477,100.65878 c 0.33,0 0.66,0 1,0 1.20539,4.94211 0.79433,8.24504 -1,13 -1.57813,1.70703 -1.57813,1.70703 -3,3 0.31046,-1.917 0.62345,-3.83359 0.9375,-5.75 0.17402,-1.06734 0.34805,-2.13469 0.52734,-3.23438 0.4222,-2.3791 0.90719,-4.68477 1.53516,-7.01562 z"
     fill="#52abee"
     id="path102" />
  <path
     d="m 318.63477,43.658783 c 0.33,0 0.66,0 1,0 0.098,0.67547 0.19594,1.35094 0.29687,2.04687 1.07392,6.9128 1.07392,6.9128 5.70313,11.95313 -3.26892,-0.26505 -4.63439,-0.59783 -6.875,-3.0625 -1.55807,-4.0683 -0.91854,-6.68121 -0.125,-10.9375 z"
     fill="#4eb6e7"
     id="path104" />
  <path
     d="m 409.38477,1.533783 c 1.7557,0.0271 1.7557,0.0271 3.54687,0.0547 1.33805,0.0348 1.33805,0.0348 2.70313,0.0703 0,0.33 0,0.66 0,1 -1.17756,0.0387 -1.17756,0.0387 -2.37891,0.0781 -6.67828,0.36057 -11.12767,1.05153 -16.62109,4.9219 0.92046,-2.30116 1.58065,-3.71516 3.65625,-5.125 3.11896,-1.16441 5.77465,-1.06638 9.09375,-1 z"
     fill="#61a7f7"
     id="path106" />
  <path
     d="m 335.13868,156.56112 c 1.514,0.0174 1.514,0.0174 3.05859,0.0352 1.01192,0.009 2.02383,0.018 3.06641,0.0273 1.17369,0.0174 1.17369,0.0174 2.37109,0.0352 0,0.66 0,1.32 0,2 -1.62324,0.22162 -3.24872,0.42689 -4.875,0.625 -1.35738,0.17402 -1.35738,0.17402 -2.74218,0.35156 -0.78633,0.008 -1.57266,0.0155 -2.38282,0.0234 -0.66,-0.66 -1.32,-1.32 -2,-2 1,-1 1,-1 3.50391,-1.09766 z"
     fill="#52a7eb"
     id="path108" />
  <path
     d="m 46.634766,143.65878 c 0.33,0 0.66,0 1,0 0.0142,0.60328 0.0284,1.20656 0.043,1.82812 0.26982,5.46065 0.26982,5.46065 3.51953,9.73438 0.80437,0.47437 1.60875,0.94875 2.4375,1.4375 -0.99,0.33 -1.98,0.66 -3,1 -2.5625,-1.9375 -2.5625,-1.9375 -5,-5 -0.14543,-3.10602 0.33364,-5.9717 1,-9 z"
     fill="#57a7f3"
     id="path110" />
  <path
     d="m 311.63477,3.658783 c 0.99,0.66 1.98,1.32 3,2 -1.24177,0.70226 -2.49386,1.38629 -3.75,2.0625 -1.04414,0.57428 -1.04414,0.57428 -2.10938,1.16016 -2.50203,0.90858 -3.67386,0.66071 -6.14062,-0.22266 2.8399,-2.31399 5.45258,-3.99945 9,-5 z"
     fill="#49c4f4"
     id="path112" />
  <path
     d="m 241.63477,1.658783 c 0.99,0.66 1.98,1.32 3,2 -0.78375,0.2475 -1.5675,0.495 -2.375,0.75 -2.94817,1.40389 -3.52748,2.25676 -4.625,5.25 -0.66,0 -1.32,0 -2,0 0.1875,-2.3125 0.1875,-2.3125 1,-5 2.5625,-1.8125 2.5625,-1.8125 5,-3 z"
     fill="#5ac0f8"
     id="path114" />
  <path
     d="m 139.63477,111.65878 c 0.66,0 1.32,0 2,0 0.99,3.3 1.98,6.6 3,10 -3,-1 -3,-1 -4.1875,-3.3125 -0.8125,-2.6875 -0.8125,-2.6875 -0.8125,-6.6875 z"
     fill="#59a1ed"
     id="path116" />
  <path
     d="m 333.63477,96.658783 c 3.94926,0.55106 7.3492,1.38935 11,3 -1.5625,1.187497 -1.5625,1.187497 -4,1.999997 -3.75,-1.375 -3.75,-1.375 -7,-2.999997 0,-0.66 0,-1.32 0,-2 z"
     fill="#4abcf6"
     id="path118" />
  <path
     d="m 384.63477,116.65878 c 0.99,0.33 1.98,0.66 3,1 -0.66,2.64 -1.32,5.28 -2,8 -0.66,0 -1.32,0 -2,0 0.33,-2.97 0.66,-5.94 1,-9 z"
     fill="#53aaee"
     id="path120" />
  <path
     d="m 523.63477,9.658783 c 0.66,0 1.32,0 2,0 -1.20381,2.49362 -2.45429,4.68143 -4,7 -0.99,-0.33 -1.98,-0.66 -3,-1 1.61595,-2.0412 3.28564,-4.04073 5,-6 z"
     fill="#57d3f9"
     id="path122" />
  <path
     d="m 233.63477,102.65878 c 0.33,0.66 0.66,1.32 1,2 -0.77734,1.72656 -0.77734,1.72656 -1.9375,3.625 -0.68063,1.11375 -1.36125,2.2275 -2.0625,3.375 -0.75,-1.6875 -0.75,-1.6875 -1,-4 1.9375,-2.75 1.9375,-2.75 4,-5 z"
     fill="#5ea5f3"
     id="path124" />
  <path
     d="m 285.63477,28.658783 c 1,2 1,2 0.0625,5.125 -0.35062,0.94875 -0.70125,1.8975 -1.0625,2.875 -0.99,-0.33 -1.98,-0.66 -3,-1 0.60184,-2.02045 1.27306,-4.02111 2,-6 0.66,-0.33 1.32,-0.66 2,-1 z"
     fill="#4ac0f3"
     id="path126" />
</svg>
